<svg xmlns="http://www.w3.org/2000/svg" width="500" height="500" viewBox="0 0 500 500">
<g>
<path d="M 269.72,85.38 L 269.88,85.80 L 269.98,86.06 L 270.24,86.88 L 270.38,87.34 L 270.72,88.53 L 270.90,89.17 L 271.31,90.71 L 271.53,91.51 L 272.01,93.36 L 272.26,94.32 L 272.81,96.45 L 273.36,98.65 L 274.63,103.76 L 275.28,106.42 L 276.69,112.28 L 277.41,115.28 L 278.91,121.66 L 283.46,141.55 L 284.58,146.55 L 286.74,156.96 L 287.79,162.16 L 289.69,172.24 L 290.14,174.70 L 290.96,179.37 L 291.35,181.66 L 292.04,185.92 L 292.37,187.98 L 292.91,191.69 L 293.53,196.50 L 293.71,198.15 L 294.14,200.96 L 294.24,201.57 L 294.43,202.48 L 294.66,203.25 L 294.72,203.35 L 295.40,203.05 L 295.82,202.83 L 297.08,201.97 L 297.77,201.48 L 299.46,200.17 L 302.27,197.84 L 304.29,196.10 L 308.38,192.85 L 310.43,191.27 L 314.55,188.34 L 316.61,186.92 L 320.74,184.33 L 322.81,183.08 L 326.91,180.84 L 328.96,179.76 L 333.02,177.89 L 335.04,177.00 L 339.01,175.51 L 340.99,174.82 L 344.85,173.72 L 350.50,172.54 L 350.89,172.48 L 352.22,172.42 L 352.97,172.40 L 354.96,172.40 L 356.02,172.41 L 358.56,172.48 L 359.89,172.52 L 362.87,172.63 L 364.40,172.70 L 367.73,172.86 L 369.42,172.95 L 372.99,173.16 L 376.59,173.37 L 384.06,173.88 L 387.78,174.14 L 394.85,174.71 L 396.56,174.85 L 399.75,175.14 L 401.30,175.28 L 404.10,175.56 L 405.45,175.70 L 407.76,175.97 L 408.85,176.10 L 410.57,176.35 L 411.34,176.47 L 412.37,176.69 L 413.00,176.98 L 413.00,177.04 L 412.77,177.35 L 412.62,177.55 L 412.11,178.12 L 411.82,178.44 L 411.06,179.25 L 410.65,179.68 L 409.66,180.70 L 408.63,181.75 L 406.03,184.35 L 404.66,185.71 L 401.56,188.73 L 398.38,191.82 L 391.55,198.31 L 389.88,199.88 L 386.73,202.81 L 382.50,206.65 L 381.40,207.63 L 379.44,209.47 L 378.52,210.36 L 377.04,211.88 L 376.37,212.59 L 375.52,213.63 L 375.36,213.85 L 375.18,214.17 L 375.14,214.45 L 375.23,214.54 L 375.85,214.51 L 376.23,214.47 L 377.32,214.20 L 377.90,214.04 L 379.32,213.57 L 381.64,212.67 L 382.59,212.27 L 384.99,211.36 L 386.26,210.88 L 389.16,209.85 L 392.15,208.79 L 398.90,206.58 L 402.28,205.49 L 408.75,203.55 L 410.28,203.10 L 413.06,202.34 L 416.60,201.44 L 418.58,200.98 L 422.62,200.37 L 424.63,200.12 L 428.57,199.93 L 430.51,199.89 L 434.13,200.13 L 439.01,200.98 L 440.99,201.50 L 445.32,202.85 L 447.47,203.55 L 451.48,205.00 L 452.42,205.35 L 454.08,206.02 L 454.87,206.35 L 456.15,206.93 L 456.73,207.20 L 457.51,207.65 L 458.00,208.12 L 458.00,208.18 L 457.61,208.49 L 457.36,208.67 L 456.51,209.21 L 456.03,209.50 L 454.76,210.23 L 454.08,210.62 L 452.44,211.52 L 451.59,211.99 L 449.64,213.03 L 448.63,213.56 L 446.43,214.71 L 439.08,218.46 L 436.48,219.76 L 431.68,222.22 L 430.54,222.81 L 428.41,223.92 L 427.38,224.46 L 425.53,225.45 L 424.64,225.93 L 423.12,226.77 L 422.40,227.16 L 421.26,227.82 L 420.74,228.12 L 420.03,228.57 L 419.52,228.97 L 419.31,229.30 L 419.34,229.79 L 419.41,229.91 L 419.77,230.13 L 419.99,230.24 L 420.71,230.46 L 421.13,230.57 L 422.30,230.82 L 422.96,230.95 L 424.67,231.25 L 425.60,231.41 L 427.94,231.78 L 432.24,232.44 L 433.57,232.65 L 436.85,233.24 L 438.56,233.55 L 442.40,234.32 L 446.33,235.13 L 454.75,237.03 L 456.82,237.50 L 460.77,238.46 L 462.69,238.93 L 466.14,239.82 L 467.79,240.25 L 470.49,241.02 L 471.11,241.20 L 472.16,241.53 L 473.42,241.97 L 476.33,243.08 L 472.67,246.83 L 471.66,247.86 L 470.08,249.77 L 469.74,250.20 L 469.29,250.89 L 469.00,251.57 L 469.00,251.71 L 469.67,252.14 L 470.11,252.38 L 471.51,252.97 L 472.29,253.28 L 474.23,253.95 L 477.55,254.96 L 478.73,255.29 L 480.91,255.96 L 481.96,256.29 L 483.75,256.90 L 484.57,257.20 L 485.75,257.69 L 486.63,258.21 L 486.71,258.33 L 486.40,259.09 L 486.18,259.55 L 485.37,260.85 L 484.91,261.56 L 483.71,263.23 L 481.58,265.98 L 480.81,266.93 L 479.41,268.74 L 478.75,269.61 L 477.64,271.14 L 477.13,271.85 L 476.44,272.92 L 476.00,273.83 L 476.00,273.90 L 476.20,274.10 L 476.33,274.22 L 476.77,274.51 L 477.26,274.82 L 478.86,275.65 L 479.75,276.09 L 481.88,277.06 L 481.67,276.97 L 479.74,276.19 L 478.98,275.91 L 477.57,275.43 L 477.01,275.30 L 475.98,275.11 L 475.57,275.13 L 474.80,275.26 L 474.46,275.44 L 473.80,275.88 L 473.47,276.22 L 472.80,276.98 L 472.41,277.49 L 471.59,278.58 L 471.08,279.26 L 470.47,280.22 L 470.36,280.71 L 470.49,280.90 L 470.86,281.28 L 471.25,281.47 L 472.18,281.86 L 472.87,282.11 L 475.08,283.16 L 475.59,283.54 L 475.75,283.71 L 476.00,284.04 L 476.00,284.18 L 475.80,284.61 L 475.48,285.12 L 475.22,285.48 L 474.63,286.28 L 474.24,286.79 L 473.40,287.88 L 472.89,288.53 L 471.79,289.90 L 471.15,290.69 L 469.80,292.35 L 469.04,293.28 L 467.44,295.21 L 466.55,296.29 L 464.71,298.50 L 463.69,299.71 L 461.61,302.19 L 460.47,303.54 L 458.14,306.30 L 456.89,307.78 L 454.32,310.80 L 452.94,312.42 L 450.14,315.71 L 448.64,317.45 L 445.60,321.01 L 443.99,322.88 L 440.72,326.70 L 438.99,328.71 L 435.49,332.78 L 433.65,334.91 L 429.91,339.24 L 427.96,341.50 L 423.24,346.98 L 419.86,350.92 L 418.09,352.98 L 410.84,361.46 L 407.18,365.77 L 403.52,370.06 L 401.74,372.16 L 398.22,376.31 L 396.55,378.29 L 393.27,382.17 L 391.76,383.97 L 388.83,387.45 L 387.54,389.00 L 383.74,393.53 L 381.31,396.41 L 380.16,397.76 L 377.92,400.40 L 376.89,401.61 L 374.89,403.95 L 374.00,404.99 L 372.29,406.96 L 371.57,407.79 L 370.21,409.34 L 369.68,409.93 L 368.73,410.98 L 368.42,411.31 L 367.92,411.81 L 367.86,411.83 L 366.93,411.82 L 365.86,411.61 L 365.12,411.41 L 363.50,410.96 L 362.49,410.64 L 360.35,409.95 L 359.09,409.53 L 356.47,408.61 L 354.99,408.08 L 351.92,406.96 L 350.24,406.32 L 346.76,405.00 L 344.89,404.27 L 341.05,402.77 L 339.00,401.95 L 335.19,400.45 L 332.44,399.39 L 330.97,398.83 L 327.96,397.69 L 326.36,397.09 L 323.09,395.88 L 321.36,395.24 L 317.83,393.95 L 315.97,393.27 L 312.18,391.91 L 310.20,391.19 L 301.99,388.27 L 297.50,386.70 L 288.29,383.48 L 283.31,381.76 L 273.11,378.25 L 267.64,376.39 L 256.47,372.60 L 250.53,370.60 L 238.41,366.54 L 232.00,364.40 L 228.94,363.58 L 226.68,363.15 L 225.42,363.00 L 222.78,362.74 L 221.30,362.66 L 218.22,362.54 L 216.47,362.54 L 212.89,362.53 L 210.92,362.55 L 210.07,362.61 L 208.42,362.75 L 207.63,362.90 L 206.05,363.26 L 205.20,363.55 L 203.44,364.19 L 202.41,364.66 L 200.22,365.68 L 198.88,366.37 L 196.00,367.85 L 194.22,368.80 L 192.38,369.78 L 191.36,370.32 L 189.25,371.45 L 188.08,372.07 L 184.54,373.84 L 182.63,374.62 L 181.75,374.85 L 179.99,375.21 L 179.03,375.27 L 176.99,375.32 L 175.72,375.27 L 171.83,374.84 L 169.23,374.27 L 167.95,373.86 L 165.40,372.97 L 164.16,372.41 L 161.72,371.22 L 160.56,370.53 L 158.29,369.09 L 157.24,368.29 L 155.21,366.63 L 154.31,365.73 L 152.58,363.89 L 151.85,362.92 L 150.48,360.94 L 149.96,359.91 L 148.97,357.80 L 148.16,355.92 L 147.72,354.84 L 145.86,350.20 L 145.04,347.94 L 143.62,344.29 L 142.69,342.14 L 142.23,341.18 L 141.28,339.36 L 140.79,338.56 L 139.81,337.02 L 139.28,336.34 L 137.11,333.89 L 135.84,332.93 L 133.14,331.18 L 131.50,330.46 L 130.33,329.98 L 129.26,329.57 L 128.59,329.33 L 127.18,328.81 L 126.35,328.52 L 124.62,327.91 L 123.64,327.58 L 119.49,326.15 L 117.07,325.34 L 112.04,323.66 L 109.29,322.75 L 103.67,320.91 L 100.73,319.96 L 94.79,318.04 L 91.80,317.09 L 85.82,315.20 L 82.91,314.29 L 77.17,312.51 L 74.49,311.69 L 68.19,309.68 L 63.43,308.09 L 60.90,307.22 L 50.50,303.55 L 45.62,301.74 L 40.87,299.97 L 38.76,299.16 L 36.70,298.36 L 35.76,297.99 L 33.95,297.27 L 33.16,296.95 L 31.64,296.32 L 31.01,296.05 L 29.83,295.53 L 29.38,295.32 L 28.59,294.93 L 28.36,294.79 L 28.00,294.55 L 28.00,294.48 L 28.21,294.16 L 28.56,293.72 L 28.82,293.41 L 29.41,292.72 L 29.79,292.28 L 30.59,291.37 L 31.07,290.84 L 33.14,288.52 L 34.39,287.15 L 37.00,284.29 L 38.44,282.75 L 48.88,271.50 L 42.69,268.30 L 40.17,267.05 L 38.57,266.32 L 37.88,266.02 L 36.56,265.49 L 36.07,265.32 L 35.21,265.06 L 35.00,265.05 L 34.38,265.38 L 33.68,265.93 L 33.19,266.34 L 32.14,267.28 L 31.51,267.87 L 30.16,269.14 L 29.39,269.89 L 27.79,271.46 L 26.91,272.34 L 25.10,274.16 L 24.14,275.15 L 20.13,279.31 L 18.00,281.59 L 14.90,284.92 L 13.02,286.96 L 12.17,287.89 L 10.53,289.69 L 9.80,290.52 L 8.40,292.11 L 7.78,292.83 L 6.61,294.22 L 6.10,294.85 L 5.15,296.05 L 4.75,296.60 L 3.37,298.60 L 2.97,299.39 L 2.38,300.84 L 2.36,301.40 L 2.49,302.42 L 2.80,302.82 L 3.59,303.55 L 4.22,303.84 L 5.60,304.40 L 5.57,304.39 L 4.12,303.83 L 3.47,303.54 L 2.63,302.82 L 2.29,302.43 L 2.12,301.42 L 2.13,300.87 L 2.71,299.44 L 3.10,298.66 L 4.49,296.66 L 4.89,296.12 L 5.86,294.91 L 6.37,294.29 L 7.56,292.89 L 8.19,292.16 L 9.61,290.56 L 10.36,289.73 L 12.03,287.91 L 12.89,286.97 L 14.82,284.91 L 17.99,281.53 L 33.99,264.55 L 31.25,263.14 L 30.49,262.76 L 29.17,262.03 L 28.88,261.87 L 28.44,261.60 L 28.05,261.33 L 28.02,261.31 L 28.19,261.01 L 28.32,260.83 L 28.78,260.25 L 29.04,259.93 L 29.76,259.10 L 30.15,258.66 L 31.10,257.61 L 32.09,256.51 L 34.64,253.80 L 39.05,249.22 L 40.63,247.61 L 44.19,243.96 L 46.00,242.10 L 49.71,238.29 L 51.54,236.41 L 54.95,232.91 L 55.76,232.07 L 57.26,230.54 L 59.25,228.49 L 67.99,219.47 L 60.99,214.14 L 60.03,213.40 L 58.28,212.03 L 57.44,211.38 L 56.05,210.25 L 55.42,209.73 L 54.55,208.98 L 54.00,208.40 L 54.00,208.37 L 54.37,207.90 L 54.61,207.60 L 55.41,206.67 L 55.86,206.14 L 57.04,204.81 L 57.67,204.09 L 59.16,202.42 L 59.94,201.55 L 61.68,199.61 L 62.58,198.61 L 64.51,196.48 L 66.48,194.30 L 70.71,189.65 L 72.84,187.31 L 77.04,182.74 L 78.06,181.63 L 80.01,179.51 L 80.97,178.48 L 82.74,176.57 L 83.60,175.64 L 85.13,174.01 L 85.86,173.23 L 87.08,171.94 L 87.65,171.34 L 88.51,170.46 L 89.33,169.66 L 89.79,169.26 L 90.38,168.67 L 90.63,168.40 L 90.80,167.99 L 90.84,167.80 L 90.62,167.47 L 89.88,166.95 L 88.99,166.45 L 87.42,165.36 L 86.69,164.81 L 85.55,163.72 L 85.04,163.19 L 84.46,162.26 L 84.38,161.20 L 84.46,161.07 L 84.89,160.67 L 85.15,160.45 L 85.93,159.89 L 86.36,159.59 L 87.48,158.87 L 88.08,158.49 L 89.54,157.62 L 90.31,157.16 L 92.10,156.12 L 93.03,155.59 L 95.14,154.40 L 96.24,153.79 L 98.67,152.46 L 99.92,151.77 L 102.66,150.29 L 104.07,149.54 L 107.12,147.91 L 108.68,147.09 L 112.03,145.33 L 113.74,144.43 L 117.38,142.53 L 119.24,141.57 L 123.17,139.54 L 125.17,138.51 L 129.39,136.35 L 131.53,135.26 L 136.02,132.97 L 138.30,131.81 L 143.06,129.41 L 150.50,125.66 L 156.14,122.83 L 166.98,117.35 L 169.62,116.01 L 174.61,113.47 L 177.05,112.23 L 181.56,109.93 L 183.74,108.81 L 187.64,106.80 L 189.50,105.85 L 192.65,104.21 L 194.11,103.44 L 196.39,102.24 L 196.89,101.97 L 197.72,101.53 L 198.66,101.01 L 205.82,96.95 L 209.39,106.22 L 209.88,107.50 L 210.88,110.42 L 211.36,111.91 L 212.27,114.98 L 212.70,116.50 L 213.42,119.36 L 214.17,123.00 L 214.34,124.03 L 214.66,125.94 L 214.82,126.85 L 215.09,128.39 L 215.22,129.10 L 215.42,130.11 L 215.61,130.83 L 215.64,130.88 L 215.92,130.77 L 216.09,130.68 L 216.60,130.34 L 218.67,128.70 L 218.86,128.53 L 219.56,127.92 L 219.96,127.57 L 221.04,126.64 L 221.62,126.14 L 223.01,124.94 L 223.74,124.31 L 225.40,122.88 L 227.12,121.40 L 231.13,117.94 L 237.61,112.36 L 239.83,110.46 L 244.47,106.44 L 246.79,104.43 L 251.24,100.55 L 252.32,99.61 L 254.35,97.83 L 255.34,96.96 L 257.14,95.38 L 258.01,94.61 L 259.52,93.27 L 261.39,91.61 L 262.44,90.66 L 264.41,88.98 L 265.36,88.19 L 266.98,86.92 L 267.73,86.35 L 268.82,85.64 L 269.05,85.50 L 269.39,85.35 L 269.67,85.33 M 468.80,283.53 L 468.00,284.36 L 467.43,285.00 L 466.17,286.43 L 465.39,287.33 L 463.74,289.28 L 462.78,290.42 L 460.78,292.82 L 459.68,294.16 L 457.40,296.94 L 456.17,298.45 L 453.67,301.54 L 452.35,303.18 L 449.68,306.51 L 448.30,308.25 L 440.51,317.99 L 435.44,324.26 L 432.97,327.28 L 428.09,333.22 L 425.73,336.06 L 421.06,341.64 L 418.82,344.29 L 414.39,349.47 L 412.28,351.91 L 408.13,356.68 L 406.16,358.89 L 402.30,363.20 L 400.49,365.17 L 396.96,368.99 L 395.32,370.70 L 387.50,378.90 L 381.00,377.96 L 372.45,376.24 L 366.61,374.60 L 363.60,373.52 L 357.52,371.19 L 354.37,369.76 L 348.00,366.72 L 344.68,364.93 L 339.26,362.11 L 335.64,360.32 L 333.96,359.53 L 330.73,358.05 L 329.40,357.49 L 328.12,356.96 L 327.58,356.75 L 326.57,356.38 L 326.18,356.26 L 322.52,355.44 L 319.54,355.03 L 317.76,354.90 L 314.01,354.70 L 311.83,354.66 L 307.27,354.65 L 304.68,354.72 L 299.27,354.90 L 296.24,355.07 L 289.94,355.45 L 286.45,355.71 L 279.23,356.29 L 275.26,356.65 L 267.07,357.43 L 262.60,357.90 L 250.83,359.10 L 247.22,359.47 L 245.56,359.63 L 242.32,359.95 L 240.87,360.09 L 238.09,360.36 L 236.90,360.48 L 234.66,360.69 L 233.78,360.77 L 232.17,360.91 L 231.63,360.95 L 230.75,361.02 L 230.60,361.02 L 230.58,361.09 L 230.77,361.20 L 230.96,361.29 L 231.94,361.71 L 232.78,362.04 L 234.68,362.77 L 235.94,363.23 L 238.65,364.23 L 240.28,364.81 L 243.71,366.03 L 245.65,366.72 L 249.69,368.14 L 251.91,368.91 L 256.47,370.48 L 258.91,371.32 L 263.89,373.02 L 266.50,373.90 L 281.13,378.88 L 290.16,381.99 L 294.35,383.45 L 302.51,386.30 L 306.31,387.65 L 313.72,390.30 L 317.18,391.56 L 323.94,394.03 L 327.12,395.22 L 333.35,397.57 L 336.30,398.70 L 342.10,400.96 L 344.87,402.06 L 350.35,404.26 L 353.00,405.36 L 355.98,406.58 L 357.22,407.08 L 359.54,408.02 L 360.49,408.38 L 362.24,409.05 L 362.94,409.29 L 364.23,409.71 L 364.73,409.84 L 365.65,410.04 L 366.00,410.07 L 366.63,410.08 L 366.88,410.02 L 367.71,409.61 L 368.09,409.21 L 368.68,408.54 L 369.32,407.79 L 369.76,407.28 L 370.70,406.18 L 371.27,405.51 L 372.46,404.10 L 373.14,403.30 L 374.55,401.64 L 375.32,400.72 L 376.90,398.85 L 377.74,397.85 L 381.22,393.70 L 383.06,391.50 L 384.58,389.69 L 385.72,388.34 L 386.35,387.59 L 389.02,384.42 L 390.55,382.60 L 393.76,378.82 L 395.51,376.74 L 399.13,372.48 L 401.05,370.21 L 404.96,365.60 L 406.99,363.22 L 411.08,358.40 L 413.16,355.96 L 421.50,346.18 L 425.49,341.50 L 437.38,327.55 L 441.22,323.05 L 443.05,320.90 L 446.64,316.67 L 448.32,314.70 L 451.58,310.86 L 453.04,309.13 L 455.86,305.80 L 457.07,304.37 L 459.35,301.67 L 460.25,300.60 L 461.12,299.58 L 461.48,299.14 L 462.17,298.33 L 462.44,298.00 L 465.63,294.17 L 467.62,291.78 L 468.48,290.76 L 470.08,288.84 L 470.67,288.14 L 471.21,287.49 L 471.42,287.25 L 471.78,286.81 L 471.89,286.69 L 472.64,285.71 L 472.90,285.22 L 472.90,285.03 L 472.83,284.67 L 472.67,284.50 L 472.28,284.16 L 471.96,283.95 L 470.61,283.30 L 469.72,283.02 L 469.43,283.02 M 430.96,289.51 L 423.45,296.97 L 418.73,301.62 L 416.53,303.77 L 412.25,307.94 L 410.31,309.82 L 406.55,313.43 L 404.89,315.00 L 401.73,317.99 L 400.40,319.22 L 397.91,321.50 L 396.94,322.36 L 396.02,323.17 L 395.63,323.50 L 394.91,324.10 L 394.62,324.32 L 394.11,324.71 L 393.93,324.83 L 393.63,325.00 L 393.56,325.00 L 392.13,324.74 L 390.59,324.34 L 389.59,324.05 L 387.49,323.40 L 386.30,323.01 L 383.87,322.20 L 382.62,321.75 L 379.61,320.70 L 377.89,320.13 L 377.11,319.90 L 374.12,319.14 L 372.46,318.93 L 370.73,318.75 L 369.73,318.69 L 367.62,318.59 L 366.35,318.57 L 363.67,318.53 L 362.04,318.52 L 358.58,318.52 L 356.50,318.52 L 348.82,318.63 L 344.15,318.83 L 341.89,319.04 L 337.37,319.53 L 335.00,319.92 L 330.17,320.80 L 327.47,321.43 L 324.72,322.08 L 323.25,322.46 L 320.23,323.26 L 318.61,323.72 L 315.26,324.67 L 313.45,325.21 L 309.73,326.34 L 307.70,326.96 L 303.54,328.27 L 301.27,328.99 L 296.60,330.49 L 294.06,331.32 L 288.84,333.03 L 286.00,333.97 L 280.17,335.90 L 277.00,336.95 L 269.41,339.47 L 264.69,341.05 L 262.50,341.79 L 258.21,343.23 L 256.22,343.90 L 252.35,345.21 L 250.57,345.82 L 247.10,347.01 L 245.51,347.56 L 242.42,348.63 L 241.02,349.12 L 238.30,350.08 L 237.07,350.51 L 234.70,351.36 L 233.64,351.75 L 231.61,352.50 L 230.71,352.84 L 229.00,353.50 L 228.25,353.79 L 226.84,354.36 L 226.24,354.61 L 225.11,355.10 L 224.65,355.32 L 223.06,356.10 L 222.63,356.39 L 222.00,356.91 L 222.00,357.09 L 222.66,357.60 L 223.63,357.65 L 224.25,357.51 L 225.46,357.27 L 226.97,357.01 L 228.04,356.82 L 230.39,356.42 L 231.85,356.17 L 234.93,355.65 L 236.71,355.35 L 240.41,354.73 L 242.46,354.38 L 246.69,353.68 L 248.96,353.30 L 253.59,352.54 L 256.02,352.14 L 260.96,351.32 L 263.50,350.91 L 274.10,349.20 L 280.63,348.17 L 283.64,347.72 L 289.50,346.86 L 292.20,346.49 L 297.44,345.80 L 299.85,345.51 L 304.54,344.98 L 306.69,344.77 L 310.86,344.40 L 312.78,344.28 L 316.50,344.08 L 318.21,344.04 L 321.53,344.01 L 323.06,344.06 L 326.04,344.20 L 327.42,344.34 L 330.10,344.65 L 331.35,344.87 L 336.12,345.93 L 338.28,346.73 L 342.47,348.50 L 344.49,349.65 L 348.53,352.14 L 350.64,353.67 L 356.25,357.70 L 359.47,360.01 L 360.87,360.99 L 363.53,362.85 L 364.69,363.65 L 366.92,365.16 L 367.91,365.81 L 369.83,367.05 L 370.72,367.60 L 372.46,368.65 L 373.31,369.14 L 376.67,371.00 L 378.58,371.98 L 380.71,373.06 L 381.69,373.54 L 383.56,374.45 L 384.33,374.82 L 385.76,375.48 L 386.24,375.68 L 387.03,376.00 L 387.12,376.00 L 387.49,375.77 L 387.93,375.40 L 388.23,375.12 L 388.90,374.48 L 389.31,374.07 L 390.19,373.20 L 390.69,372.68 L 392.89,370.40 L 394.21,369.01 L 396.96,366.07 L 398.47,364.43 L 401.58,361.05 L 403.20,359.27 L 406.46,355.66 L 408.08,353.85 L 411.30,350.23 L 412.82,348.48 L 415.79,345.06 L 417.12,343.50 L 420.33,339.68 L 422.84,336.65 L 424.25,334.93 L 427.17,331.35 L 428.76,329.40 L 432.00,325.39 L 433.72,323.25 L 437.22,318.91 L 439.02,316.66 L 442.68,312.09 L 444.53,309.76 L 452.01,300.36 L 455.67,295.74 L 459.29,291.14 L 461.04,288.92 L 464.49,284.53 L 466.12,282.45 L 469.31,278.36 L 470.78,276.48 L 473.62,272.81 L 474.88,271.17 L 477.29,268.03 L 478.31,266.69 L 480.21,264.18 L 480.93,263.19 L 481.62,262.26 L 481.91,261.86 L 482.43,261.13 L 482.63,260.84 L 482.98,260.32 L 483.09,260.14 L 483.26,259.85 L 483.27,259.79 L 482.69,259.19 L 481.69,258.65 L 480.94,258.35 L 479.30,257.70 L 478.29,257.37 L 476.18,256.70 L 475.02,256.37 L 466.54,254.02 M 318.00,346.53 L 313.20,346.57 L 310.28,346.63 L 308.89,346.69 L 303.44,347.01 L 300.42,347.34 L 297.31,347.70 L 295.57,347.94 L 291.94,348.45 L 289.86,348.77 L 285.49,349.45 L 282.95,349.87 L 280.34,350.30 L 278.94,350.53 L 276.06,351.02 L 274.50,351.28 L 263.45,353.11 L 260.06,353.66 L 258.49,353.91 L 255.43,354.40 L 254.06,354.61 L 251.43,355.02 L 250.30,355.19 L 248.18,355.51 L 247.33,355.63 L 245.79,355.84 L 245.27,355.90 L 244.40,356.00 L 244.25,356.00 L 242.66,356.29 L 242.00,356.72 L 242.00,357.00 L 242.04,357.44 L 242.17,357.66 L 242.36,357.73 L 242.83,357.85 L 243.26,357.87 L 244.27,357.87 L 245.04,357.82 L 246.78,357.70 L 248.00,357.58 L 249.28,357.46 L 250.02,357.38 L 251.56,357.22 L 252.44,357.13 L 254.28,356.93 L 255.32,356.81 L 257.47,356.58 L 258.67,356.44 L 261.16,356.16 L 262.54,356.00 L 265.40,355.68 L 266.97,355.50 L 277.40,354.37 L 283.76,353.74 L 286.67,353.48 L 292.29,353.00 L 294.84,352.82 L 299.76,352.50 L 301.98,352.39 L 306.25,352.22 L 308.15,352.19 L 311.81,352.17 L 313.42,352.21 L 316.51,352.34 L 317.86,352.46 L 320.42,352.73 L 321.52,352.92 L 325.57,353.86 L 328.44,354.80 L 330.09,355.48 L 331.79,356.20 L 332.72,356.62 L 334.64,357.51 L 335.70,358.03 L 337.88,359.11 L 339.10,359.73 L 341.61,361.02 L 343.00,361.75 L 349.26,364.93 L 353.55,367.01 L 355.59,367.95 L 359.56,369.75 L 361.25,370.47 L 362.88,371.15 L 363.60,371.43 L 364.95,371.95 L 365.50,372.14 L 367.60,372.85 L 368.58,373.15 L 370.49,373.72 L 371.35,373.95 L 373.01,374.37 L 373.72,374.53 L 375.07,374.80 L 375.61,374.87 L 376.59,374.98 L 376.93,374.97 L 377.49,374.91 L 377.59,374.82 L 377.67,374.58 L 377.51,374.39 L 377.06,373.97 L 376.61,373.69 L 368.70,368.63 L 363.71,365.36 L 361.46,363.84 L 359.26,362.35 L 358.25,361.65 L 356.28,360.28 L 355.39,359.66 L 353.69,358.44 L 352.96,357.90 L 351.56,356.86 L 351.00,356.42 L 348.39,354.52 L 346.40,353.20 L 345.35,352.55 L 343.26,351.29 L 342.26,350.73 L 340.32,349.69 L 339.50,349.30 L 335.80,347.73 L 333.57,347.07 L 332.18,346.89 L 330.71,346.74 L 329.84,346.68 L 327.97,346.60 L 326.84,346.57 L 324.43,346.53 L 322.97,346.53 L 319.86,346.53 M 143.35,336.31 L 143.43,336.89 L 143.65,337.70 L 143.83,338.26 L 144.25,339.49 L 144.51,340.22 L 145.07,341.73 L 145.39,342.55 L 147.53,348.13 L 148.24,350.03 L 148.56,350.89 L 149.17,352.54 L 149.41,353.18 L 150.94,356.65 L 152.20,358.88 L 152.93,359.94 L 154.46,362.02 L 155.32,362.99 L 157.09,364.89 L 158.06,365.76 L 160.04,367.45 L 161.09,368.21 L 163.24,369.66 L 164.37,370.28 L 166.65,371.45 L 167.83,371.93 L 170.22,372.80 L 171.44,373.11 L 173.44,373.47 L 174.63,373.54 L 177.04,373.60 L 178.00,373.50 L 178.88,373.30 L 179.70,373.04 L 180.21,372.86 L 182.50,371.99 L 183.93,371.39 L 186.95,370.10 L 188.61,369.36 L 191.99,367.83 L 193.69,367.03 L 197.07,365.42 L 198.62,364.65 L 201.62,363.14 L 202.85,362.49 L 204.02,361.86 L 204.52,361.58 L 205.45,361.04 L 205.80,360.81 L 206.44,360.40 L 206.64,360.24 L 206.94,359.96 L 206.94,359.88 L 206.29,359.20 L 205.19,358.53 L 204.35,358.10 L 202.49,357.19 L 201.31,356.66 L 198.81,355.55 L 197.35,354.93 L 194.33,353.66 L 192.66,352.99 L 189.22,351.61 L 187.40,350.89 L 179.83,347.97 L 175.91,346.52 L 168.05,343.64 L 164.33,342.34 L 160.67,341.07 L 158.95,340.49 L 155.60,339.38 L 154.08,338.89 L 151.17,337.98 L 149.91,337.61 L 147.55,336.94 L 146.62,336.71 L 144.92,336.32 L 144.37,336.25 L 143.47,336.20 M 148.71,339.55 L 149.00,340.35 L 149.00,340.87 L 149.28,342.15 L 149.72,343.45 L 150.04,344.26 L 150.74,345.97 L 151.17,346.91 L 152.05,348.84 L 152.54,349.81 L 154.77,353.75 L 156.40,356.18 L 157.28,357.29 L 159.09,359.43 L 160.05,360.39 L 161.99,362.22 L 163.00,363.02 L 165.05,364.52 L 166.10,365.13 L 168.21,366.27 L 169.29,366.69 L 171.44,367.44 L 172.52,367.66 L 174.68,367.99 L 175.75,367.99 L 177.34,368.29 L 178.00,368.72 L 178.00,369.00 L 177.90,369.41 L 177.72,369.56 L 177.26,369.81 L 176.92,369.88 L 176.17,369.99 L 175.71,369.99 L 174.72,369.96 L 174.16,369.89 L 171.77,369.49 L 170.45,369.10 L 167.78,368.21 L 166.50,367.61 L 164.27,366.38 L 162.67,365.36 L 161.88,364.80 L 160.33,363.64 L 159.63,363.06 L 158.31,361.90 L 157.80,361.37 L 155.35,358.44 L 153.75,356.19 L 153.00,354.98 L 151.54,352.52 L 150.88,351.28 L 149.63,348.80 L 149.11,347.61 L 148.15,345.30 L 147.81,344.27 L 147.23,342.31 L 147.11,341.53 L 146.99,340.12 L 147.13,339.68 L 147.31,339.29 L 147.45,339.18 L 147.78,339.00 L 148.00,339.00 M 429.02,202.00 L 426.72,202.12 L 424.95,202.32 L 423.95,202.47 L 421.89,202.81 L 420.77,203.03 L 418.46,203.51 L 417.23,203.79 L 412.09,205.03 L 409.29,205.81 L 403.56,207.45 L 400.58,208.40 L 394.55,210.35 L 391.52,211.41 L 385.49,213.58 L 382.57,214.72 L 376.82,217.02 L 374.15,218.18 L 368.98,220.51 L 366.71,221.66 L 365.97,222.08 L 365.29,222.50 L 364.87,222.78 L 363.95,223.39 L 363.41,223.76 L 362.28,224.53 L 361.64,224.98 L 358.86,226.92 L 357.19,228.11 L 353.70,230.61 L 351.72,232.04 L 347.63,235.00 L 345.40,236.63 L 340.83,239.98 L 338.41,241.76 L 333.48,245.40 L 330.92,247.29 L 325.75,251.12 L 323.12,253.09 L 312.50,261.02 L 307.29,264.94 L 302.12,268.84 L 299.63,270.74 L 294.70,274.48 L 292.36,276.26 L 287.79,279.76 L 285.68,281.39 L 281.58,284.56 L 279.75,285.98 L 276.26,288.73 L 274.77,289.91 L 271.99,292.14 L 270.91,293.03 L 268.08,295.43 L 266.01,297.22 L 264.91,298.21 L 260.29,302.38 L 257.77,304.73 L 252.61,309.58 L 249.92,312.17 L 244.50,317.42 L 241.79,320.10 L 236.40,325.48 L 233.81,328.11 L 228.73,333.32 L 226.40,335.77 L 224.11,338.18 L 223.04,339.33 L 220.95,341.59 L 219.99,342.65 L 218.13,344.72 L 217.30,345.67 L 215.70,347.51 L 215.01,348.33 L 213.04,350.73 L 211.93,352.11 L 211.47,352.70 L 210.61,353.82 L 210.28,354.29 L 209.66,355.18 L 209.44,355.55 L 209.04,356.24 L 208.92,356.51 L 208.73,357.03 L 208.71,357.23 L 208.79,357.89 L 209.07,358.07 L 209.86,358.54 L 210.18,358.71 L 210.73,358.98 L 210.82,358.98 L 211.12,358.78 L 211.55,358.45 L 211.87,358.20 L 212.56,357.63 L 213.00,357.27 L 213.93,356.49 L 214.48,356.04 L 216.85,354.04 L 218.26,352.84 L 221.21,350.31 L 222.82,348.93 L 232.76,340.63 L 240.01,334.82 L 243.89,331.81 L 251.81,325.75 L 255.96,322.66 L 264.38,316.47 L 268.72,313.37 L 286.36,300.97 L 295.27,295.05 L 304.17,289.20 L 308.55,286.40 L 317.27,280.90 L 321.50,278.33 L 337.16,269.11 L 342.74,265.96 L 345.75,264.31 L 351.94,260.94 L 355.35,259.12 L 358.82,257.27 L 360.64,256.31 L 364.37,254.35 L 366.33,253.33 L 370.34,251.24 L 372.47,250.14 L 376.80,247.91 L 379.09,246.74 L 383.77,244.34 L 386.25,243.08 L 391.31,240.50 L 394.00,239.14 L 399.47,236.37 L 402.38,234.91 L 408.30,231.92 L 411.44,230.34 L 418.68,226.70 L 423.08,224.48 L 425.06,223.48 L 428.90,221.54 L 430.62,220.67 L 433.94,218.98 L 435.42,218.23 L 438.25,216.77 L 439.49,216.13 L 441.87,214.89 L 442.91,214.35 L 444.87,213.31 L 445.71,212.85 L 447.29,211.99 L 447.95,211.61 L 449.18,210.90 L 449.68,210.60 L 450.59,210.03 L 450.95,209.79 L 451.58,209.33 L 451.81,209.14 L 452.20,208.78 L 452.32,208.63 L 452.58,208.11 L 452.48,207.92 L 452.13,207.58 L 451.83,207.42 L 449.74,206.49 L 448.05,205.86 L 447.09,205.54 L 442.99,204.32 L 440.78,203.80 L 436.33,202.82 L 434.29,202.51 L 432.30,202.22 L 431.42,202.13 L 429.72,202.00 M 353.63,175.04 L 351.70,175.09 L 350.87,175.14 L 347.82,175.43 L 346.43,175.72 L 343.64,176.41 L 341.92,176.93 L 335.64,179.09 L 331.55,180.78 L 329.52,181.78 L 325.46,183.89 L 323.41,185.12 L 319.28,187.71 L 317.15,189.22 L 312.84,192.38 L 310.58,194.19 L 305.99,197.98 L 303.55,200.14 L 298.56,204.64 L 295.89,207.19 L 290.41,212.47 L 287.45,215.44 L 278.05,225.16 L 271.81,231.94 L 268.67,235.52 L 262.38,242.81 L 259.19,246.69 L 252.77,254.59 L 249.48,258.81 L 242.85,267.43 L 239.43,272.04 L 232.50,281.48 L 228.90,286.55 L 225.28,291.67 L 223.42,294.33 L 219.69,299.70 L 217.78,302.48 L 213.93,308.11 L 211.96,311.03 L 207.99,316.94 L 205.95,320.00 L 202.91,324.56 L 201.07,327.33 L 200.23,328.60 L 198.60,331.05 L 197.87,332.16 L 196.45,334.31 L 195.82,335.27 L 194.60,337.14 L 194.06,337.97 L 193.03,339.56 L 192.58,340.27 L 191.72,341.62 L 191.35,342.21 L 190.65,343.34 L 190.35,343.83 L 189.32,345.59 L 188.99,346.21 L 188.46,347.30 L 188.35,347.65 L 188.22,348.24 L 188.27,348.41 L 188.44,348.66 L 188.61,348.72 L 189.55,349.12 L 190.68,349.62 L 191.44,349.96 L 193.08,350.70 L 194.02,351.13 L 195.97,352.03 L 197.00,352.50 L 199.04,353.43 L 199.99,353.84 L 201.82,354.63 L 202.59,354.94 L 204.02,355.51 L 204.52,355.68 L 205.36,355.95 L 205.50,355.95 L 206.36,355.33 L 207.33,354.38 L 207.97,353.68 L 209.32,352.16 L 210.09,351.24 L 211.67,349.31 L 212.50,348.26 L 214.49,345.83 L 216.10,343.96 L 217.03,342.92 L 218.97,340.77 L 220.04,339.60 L 222.27,337.21 L 223.47,335.94 L 228.50,330.67 L 231.26,327.86 L 236.93,322.13 L 239.87,319.22 L 245.81,313.39 L 248.75,310.56 L 254.59,304.99 L 257.35,302.42 L 260.07,299.90 L 261.37,298.72 L 263.92,296.41 L 265.11,295.35 L 267.44,293.30 L 268.51,292.39 L 270.58,290.64 L 271.50,289.89 L 281.03,282.29 L 284.51,279.57 L 286.46,278.06 L 290.53,274.93 L 292.88,273.15 L 295.28,271.32 L 296.58,270.33 L 299.25,268.32 L 300.68,267.23 L 303.64,265.01 L 305.24,263.80 L 308.52,261.34 L 310.29,260.01 L 313.92,257.29 L 315.89,255.82 L 319.92,252.80 L 322.09,251.18 L 326.54,247.85 L 328.94,246.06 L 333.86,242.39 L 336.50,240.42 L 345.21,233.85 L 351.24,229.24 L 354.14,227.00 L 357.01,224.78 L 358.37,223.72 L 361.03,221.64 L 362.26,220.67 L 364.63,218.80 L 365.68,217.96 L 367.67,216.36 L 368.50,215.68 L 374.12,210.98 L 378.32,207.39 L 380.53,205.46 L 389.61,197.48 L 393.82,193.67 L 397.93,189.94 L 399.75,188.26 L 401.53,186.62 L 402.33,185.86 L 403.89,184.40 L 404.57,183.74 L 405.88,182.49 L 406.42,181.95 L 407.43,180.94 L 407.81,180.54 L 408.49,179.82 L 408.69,179.57 L 409.00,179.16 L 409.00,179.09 L 408.76,178.88 L 408.36,178.73 L 408.05,178.65 L 407.35,178.50 L 406.90,178.42 L 405.93,178.25 L 405.35,178.17 L 402.79,177.82 L 401.17,177.64 L 397.75,177.29 L 395.77,177.12 L 391.64,176.77 L 389.38,176.60 L 384.74,176.27 L 382.28,176.12 L 372.12,175.55 L 366.92,175.36 L 361.43,175.17 L 358.36,175.08 L 357.08,175.06 L 354.66,175.03 M 415.43,232.00 L 414.00,232.35 L 412.44,232.92 L 411.39,233.36 L 409.10,234.34 L 407.72,234.97 L 404.81,236.30 L 403.14,237.09 L 399.68,238.75 L 397.78,239.67 L 393.86,241.60 L 391.76,242.64 L 387.46,244.79 L 385.21,245.94 L 380.64,248.26 L 378.27,249.48 L 368.65,254.46 L 363.76,257.05 L 353.97,262.26 L 349.25,264.82 L 344.58,267.37 L 342.33,268.61 L 337.91,271.07 L 335.81,272.25 L 331.72,274.57 L 329.83,275.66 L 326.15,277.80 L 324.50,278.79 L 318.34,282.53 L 314.08,285.18 L 311.89,286.57 L 302.95,292.31 L 298.33,295.37 L 289.02,301.61 L 284.34,304.83 L 274.99,311.33 L 270.41,314.59 L 261.36,321.11 L 257.06,324.29 L 248.64,330.58 L 244.79,333.56 L 241.00,336.51 L 239.21,337.93 L 235.72,340.73 L 234.10,342.06 L 230.94,344.67 L 229.51,345.89 L 226.73,348.29 L 225.50,349.40 L 224.17,350.62 L 223.61,351.16 L 222.55,352.19 L 222.15,352.60 L 221.46,353.35 L 221.28,353.58 L 221.04,353.95 L 221.13,353.96 L 221.92,353.77 L 222.91,353.45 L 223.59,353.22 L 225.06,352.70 L 225.91,352.39 L 227.69,351.74 L 228.63,351.38 L 232.75,349.85 L 236.02,348.68 L 237.87,348.02 L 241.73,346.67 L 243.84,345.94 L 248.17,344.45 L 250.48,343.67 L 255.19,342.07 L 257.66,341.25 L 262.64,339.58 L 265.20,338.73 L 275.58,335.30 L 280.77,333.61 L 291.09,330.26 L 295.94,328.72 L 300.73,327.20 L 302.99,326.49 L 307.42,325.10 L 309.46,324.47 L 313.43,323.25 L 315.20,322.71 L 318.61,321.69 L 320.06,321.27 L 322.80,320.48 L 323.88,320.18 L 325.84,319.67 L 326.50,319.52 L 335.77,317.64 L 341.55,316.67 L 344.28,316.33 L 349.62,315.74 L 352.16,315.60 L 357.14,315.40 L 359.52,315.45 L 364.22,315.64 L 366.49,315.88 L 370.98,316.46 L 373.17,316.90 L 377.53,317.87 L 379.69,318.50 L 384.00,319.87 L 386.17,320.70 L 392.84,323.25 L 395.67,321.20 L 396.34,320.65 L 396.98,320.09 L 397.39,319.72 L 398.26,318.92 L 398.77,318.43 L 399.86,317.41 L 400.48,316.82 L 403.14,314.26 L 404.73,312.71 L 408.06,309.44 L 409.94,307.59 L 413.81,303.76 L 415.90,301.68 L 420.17,297.42 L 422.41,295.18 L 431.59,285.96 L 436.25,281.25 L 440.89,276.54 L 443.16,274.24 L 447.66,269.66 L 449.80,267.47 L 454.01,263.16 L 455.96,261.15 L 459.74,257.25 L 461.42,255.50 L 464.64,252.15 L 466.00,250.72 L 467.30,249.34 L 467.88,248.72 L 468.99,247.53 L 469.47,247.02 L 470.36,246.04 L 470.73,245.64 L 471.39,244.88 L 471.63,244.60 L 472.05,244.09 L 472.16,243.94 L 472.32,243.70 L 472.29,243.68 L 471.15,243.19 L 469.93,242.79 L 469.13,242.55 L 467.38,242.06 L 466.34,241.79 L 464.15,241.24 L 462.91,240.94 L 460.36,240.33 L 458.97,240.01 L 456.12,239.36 L 454.62,239.03 L 448.41,237.69 L 445.19,237.02 L 438.72,235.72 L 435.60,235.12 L 429.49,233.98 L 426.80,233.52 L 424.18,233.08 L 423.00,232.89 L 420.73,232.54 L 419.76,232.41 L 417.92,232.18 L 417.19,232.11 L 415.87,232.00 M 78.89,229.00 L 77.88,229.30 L 76.95,229.80 L 76.35,230.21 L 75.06,231.13 L 74.27,231.76 L 72.61,233.12 L 71.63,233.97 L 69.56,235.78 L 68.38,236.86 L 65.90,239.14 L 64.50,240.46 L 61.59,243.23 L 59.97,244.80 L 56.61,248.06 L 54.76,249.89 L 40.02,264.40 L 67.76,278.03 L 78.85,283.54 L 85.87,287.07 L 89.21,288.77 L 95.78,292.16 L 98.93,293.81 L 105.15,297.09 L 108.16,298.71 L 119.92,305.15 L 125.59,308.38 L 136.84,314.90 L 142.50,318.31 L 150.22,323.01 L 154.93,325.92 L 157.07,327.26 L 161.19,329.86 L 163.02,331.05 L 166.55,333.35 L 168.08,334.39 L 171.01,336.38 L 172.24,337.26 L 174.56,338.94 L 175.50,339.66 L 177.21,341.03 L 177.84,341.59 L 178.94,342.64 L 179.26,343.05 L 180.42,344.45 L 180.87,344.90 L 181.69,345.63 L 181.98,345.75 L 182.46,345.85 L 182.58,345.68 L 182.73,345.19 L 182.68,344.74 L 182.50,343.71 L 182.29,343.01 L 181.79,341.50 L 181.43,340.57 L 180.61,338.61 L 180.08,337.47 L 178.95,335.11 L 178.27,333.80 L 176.88,331.33 L 175.74,329.48 L 175.06,328.47 L 173.65,326.38 L 172.85,325.25 L 171.19,322.94 L 170.27,321.70 L 168.38,319.19 L 167.35,317.87 L 165.25,315.19 L 164.13,313.79 L 159.45,308.04 L 156.88,304.99 L 151.58,298.80 L 148.75,295.60 L 142.99,289.16 L 139.99,285.90 L 133.92,279.38 L 130.83,276.16 L 124.61,269.76 L 121.50,266.66 L 115.49,260.82 L 111.13,256.67 L 108.86,254.56 L 104.28,250.34 L 102.00,248.27 L 97.48,244.20 L 95.34,242.31 L 91.15,238.64 L 89.28,237.03 L 87.45,235.47 L 86.61,234.77 L 84.98,233.41 L 84.25,232.81 L 82.85,231.68 L 82.24,231.21 L 81.10,230.34 L 80.65,230.01 L 79.81,229.43 L 79.51,229.26 L 79.01,229.00 M 91.14,168.14 L 91.21,168.54 L 91.45,168.92 L 91.22,169.48 L 90.73,170.22 L 90.33,170.75 L 89.43,171.90 L 88.85,172.62 L 87.60,174.15 L 86.85,175.04 L 85.29,176.89 L 84.40,177.91 L 82.57,180.02 L 81.57,181.16 L 77.35,185.90 L 75.01,188.46 L 68.40,195.76 L 66.42,197.98 L 65.52,199.00 L 63.77,200.98 L 63.00,201.86 L 61.53,203.54 L 60.92,204.26 L 59.77,205.60 L 59.34,206.12 L 58.57,207.07 L 58.35,207.37 L 58.00,207.86 L 58.00,207.92 L 58.25,208.29 L 58.66,208.72 L 58.97,209.02 L 59.66,209.68 L 60.10,210.08 L 61.04,210.92 L 61.60,211.41 L 64.03,213.50 L 65.49,214.73 L 68.56,217.27 L 70.24,218.63 L 89.22,234.56 L 101.84,245.77 L 108.01,251.51 L 120.21,263.08 L 126.01,268.84 L 131.75,274.59 L 134.52,277.44 L 139.99,283.11 L 142.61,285.89 L 147.76,291.41 L 150.19,294.11 L 154.97,299.44 L 157.20,302.01 L 161.55,307.09 L 163.55,309.52 L 167.42,314.30 L 169.17,316.55 L 172.51,320.97 L 173.97,323.03 L 176.75,327.04 L 177.90,328.87 L 180.04,332.42 L 180.86,333.99 L 182.33,337.02 L 182.79,338.32 L 184.50,343.13 L 184.83,334.82 L 184.89,330.49 L 184.82,327.41 L 184.74,325.80 L 184.27,319.17 L 183.85,315.68 L 182.89,308.60 L 182.25,305.03 L 180.84,297.90 L 179.99,294.44 L 176.42,281.80 L 173.62,273.46 L 172.01,269.34 L 168.67,261.13 L 166.80,257.08 L 162.92,249.04 L 160.78,245.08 L 156.38,237.21 L 153.99,233.36 L 149.08,225.70 L 146.44,221.95 L 141.04,214.52 L 138.15,210.90 L 132.27,203.73 L 129.15,200.24 L 126.97,197.91 L 125.30,196.21 L 124.38,195.31 L 120.49,191.56 L 118.33,189.58 L 113.91,185.58 L 111.65,183.61 L 107.13,179.71 L 104.98,177.93 L 102.86,176.18 L 101.85,175.36 L 99.88,173.79 L 98.97,173.08 L 97.21,171.71 L 96.42,171.13 L 94.92,170.03 L 94.28,169.60 L 93.09,168.81 L 92.63,168.54 L 91.81,168.10 L 91.56,168.03 L 91.16,167.99 M 51.45,273.23 L 50.96,273.58 L 50.63,273.84 L 49.93,274.42 L 49.52,274.79 L 48.65,275.58 L 48.17,276.04 L 46.10,278.02 L 44.95,279.17 L 42.59,281.57 L 41.39,282.82 L 39.01,285.34 L 37.90,286.54 L 35.77,288.89 L 34.90,289.91 L 33.30,291.80 L 32.79,292.48 L 32.34,293.11 L 32.21,293.34 L 32.00,293.74 L 32.00,293.84 L 32.23,294.10 L 32.62,294.35 L 32.92,294.50 L 33.59,294.84 L 34.03,295.04 L 34.98,295.45 L 35.55,295.69 L 38.09,296.71 L 39.71,297.32 L 43.17,298.62 L 45.21,299.35 L 49.48,300.86 L 51.88,301.69 L 56.83,303.39 L 59.52,304.29 L 65.03,306.12 L 67.95,307.08 L 73.90,309.01 L 77.00,309.99 L 84.86,312.49 L 89.68,314.03 L 91.90,314.73 L 96.20,316.11 L 98.17,316.74 L 101.98,317.96 L 103.72,318.52 L 107.09,319.61 L 108.63,320.11 L 111.59,321.08 L 112.93,321.52 L 115.52,322.38 L 116.69,322.77 L 118.95,323.53 L 119.97,323.87 L 121.93,324.55 L 122.82,324.86 L 124.52,325.46 L 125.29,325.74 L 128.16,326.80 L 129.35,327.28 L 131.61,328.20 L 132.60,328.64 L 134.54,329.51 L 135.50,329.97 L 139.20,331.62 L 141.95,332.75 L 143.35,333.28 L 146.15,334.32 L 147.46,334.76 L 149.97,335.58 L 151.00,335.86 L 154.46,336.85 L 157.04,337.62 L 158.35,338.03 L 160.97,338.86 L 162.19,339.26 L 164.54,340.04 L 165.50,340.38 L 169.40,341.68 L 171.03,342.14 L 172.58,342.55 L 173.17,342.68 L 174.22,342.88 L 174.50,342.89 L 175.47,342.84 L 175.76,342.70 L 175.71,342.55 L 175.47,342.18 L 175.15,341.88 L 174.37,341.19 L 173.77,340.69 L 172.71,339.89 L 171.73,339.19 L 171.11,338.77 L 169.81,337.89 L 169.04,337.38 L 167.44,336.33 L 166.55,335.75 L 162.72,333.28 L 160.51,331.89 L 155.91,329.00 L 153.43,327.46 L 143.09,321.10 L 137.91,317.99 L 132.77,314.92 L 130.35,313.49 L 125.61,310.72 L 123.50,309.52 L 119.98,307.54 L 117.24,306.02 L 115.71,305.19 L 112.55,303.48 L 110.85,302.57 L 107.38,300.71 L 105.57,299.75 L 98.16,295.84 L 94.41,293.90 L 86.97,290.06 L 83.54,288.33 L 58.57,275.71 L 50.23,284.46 L 46.94,287.81 L 44.97,289.73 L 44.15,290.46 L 42.66,291.78 L 42.17,292.15 L 41.71,292.47 L 41.56,292.55 L 41.31,292.65 L 41.27,292.60 L 41.33,291.69 L 41.61,291.19 L 41.84,290.85 L 42.37,290.14 L 42.74,289.69 L 43.54,288.73 L 44.05,288.15 L 45.16,286.91 L 45.84,286.17 L 47.28,284.62 L 48.13,283.71 L 49.93,281.81 L 50.97,280.72 L 52.50,279.10 L 53.34,278.17 L 53.68,277.78 L 54.85,276.36 L 55.14,275.86 L 55.56,274.99 L 55.52,274.70 L 55.31,274.18 L 55.00,273.98 L 53.48,273.31 L 52.36,273.02 L 51.92,273.02 M 268.21,89.46 L 267.63,89.84 L 267.21,90.15 L 266.29,90.84 L 265.71,91.30 L 264.47,92.28 L 263.75,92.86 L 262.26,94.09 L 261.42,94.79 L 259.70,96.23 L 258.78,97.02 L 254.90,100.35 L 252.79,102.19 L 247.16,107.11 L 242.96,110.74 L 240.66,112.72 L 235.93,116.77 L 233.41,118.92 L 228.27,123.30 L 225.57,125.58 L 220.10,130.21 L 217.28,132.59 L 211.58,137.38 L 208.68,139.81 L 196.95,149.62 L 191.10,154.46 L 182.70,161.42 L 183.36,177.96 L 183.66,184.22 L 183.92,188.95 L 184.09,191.57 L 184.45,196.97 L 184.66,199.90 L 185.09,205.92 L 185.34,209.15 L 185.86,215.73 L 186.15,219.21 L 186.74,226.30 L 187.07,230.02 L 187.73,237.56 L 188.09,241.48 L 188.82,249.41 L 189.21,253.50 L 189.45,256.69 L 189.60,259.33 L 189.67,260.88 L 189.80,264.12 L 189.86,265.93 L 189.98,269.65 L 190.03,271.66 L 190.13,275.77 L 190.17,277.94 L 190.25,282.32 L 190.29,284.58 L 190.41,293.77 L 190.44,298.36 L 190.48,307.49 L 190.47,311.74 L 190.46,315.92 L 190.44,317.88 L 190.41,321.70 L 190.38,323.45 L 190.32,326.80 L 190.28,328.27 L 190.20,331.06 L 190.15,332.20 L 190.04,334.32 L 189.98,335.08 L 189.85,336.41 L 189.77,336.75 L 189.48,338.45 L 189.48,339.03 L 189.50,339.56 L 189.55,339.72 L 189.68,339.97 L 189.77,339.96 L 190.09,339.68 L 190.47,339.24 L 190.73,338.90 L 191.29,338.15 L 191.64,337.68 L 192.37,336.65 L 192.78,336.05 L 194.59,333.43 L 195.64,331.85 L 197.83,328.54 L 199.00,326.72 L 209.62,310.57 L 216.79,300.00 L 220.39,294.84 L 227.61,284.62 L 231.21,279.68 L 238.40,269.91 L 241.96,265.23 L 249.04,256.02 L 252.52,251.65 L 259.43,243.09 L 262.79,239.08 L 269.44,231.27 L 272.64,227.68 L 278.96,220.72 L 281.97,217.59 L 292.64,206.50 L 291.33,195.00 L 291.00,192.36 L 290.73,190.37 L 290.57,189.27 L 289.89,184.67 L 289.49,182.18 L 288.67,177.12 L 288.24,174.62 L 287.36,169.70 L 286.94,167.50 L 285.98,162.65 L 285.27,159.13 L 284.87,157.26 L 283.22,149.45 L 282.31,145.27 L 280.43,136.78 L 279.46,132.49 L 277.50,123.92 L 276.54,119.83 L 275.59,115.79 L 275.13,113.85 L 274.22,110.04 L 273.78,108.25 L 272.93,104.76 L 272.53,103.16 L 271.75,100.05 L 271.40,98.68 L 270.72,96.05 L 270.42,94.94 L 269.84,92.85 L 269.61,92.05 L 269.17,90.59 L 269.00,90.13 L 268.71,89.38 L 268.63,89.30 M 203.97,100.78 L 202.88,101.25 L 201.61,101.89 L 200.77,102.34 L 198.96,103.31 L 197.93,103.88 L 195.79,105.07 L 194.67,105.71 L 192.35,106.98 L 190.22,108.12 L 188.89,108.82 L 186.08,110.29 L 184.45,111.13 L 181.07,112.87 L 179.20,113.83 L 175.37,115.79 L 173.32,116.83 L 169.14,118.95 L 166.96,120.05 L 158.04,124.54 L 153.50,126.80 L 141.23,132.94 L 133.46,136.87 L 129.81,138.73 L 122.68,142.38 L 119.41,144.07 L 113.06,147.36 L 110.23,148.86 L 107.45,150.32 L 106.15,151.01 L 103.62,152.36 L 102.45,152.99 L 100.19,154.22 L 99.16,154.78 L 97.17,155.88 L 96.28,156.37 L 94.59,157.33 L 93.86,157.75 L 92.47,158.56 L 91.90,158.90 L 90.84,159.55 L 90.44,159.81 L 89.72,160.30 L 89.50,160.48 L 88.19,161.49 L 88.08,161.82 L 88.18,162.04 L 88.51,162.55 L 88.90,162.93 L 89.82,163.76 L 90.56,164.35 L 92.22,165.65 L 93.39,166.52 L 94.61,167.43 L 95.31,167.96 L 96.77,169.04 L 97.60,169.66 L 99.33,170.94 L 100.30,171.66 L 102.31,173.15 L 103.43,173.98 L 110.12,179.22 L 114.51,182.93 L 116.66,184.88 L 120.94,188.84 L 123.03,190.91 L 127.18,195.12 L 129.21,197.30 L 137.16,206.26 L 140.91,211.03 L 148.22,220.74 L 151.61,225.83 L 158.19,236.14 L 161.16,241.47 L 166.90,252.23 L 169.42,257.72 L 174.21,268.77 L 176.21,274.36 L 178.15,279.94 L 179.02,282.74 L 180.68,288.34 L 181.40,291.14 L 182.41,295.34 L 183.07,298.39 L 183.40,300.00 L 184.66,306.60 L 185.19,309.88 L 185.71,313.14 L 185.93,314.70 L 186.35,317.75 L 186.52,319.14 L 186.82,321.85 L 186.92,323.02 L 187.08,325.25 L 187.10,326.13 L 187.20,330.50 L 188.19,326.50 L 188.39,325.06 L 188.50,323.58 L 188.54,322.60 L 188.62,320.51 L 188.65,319.27 L 188.70,316.65 L 188.72,315.18 L 188.75,312.12 L 188.75,310.46 L 188.75,307.04 L 188.75,305.23 L 188.69,297.73 L 188.63,293.77 L 188.49,285.76 L 188.39,281.80 L 188.17,273.97 L 188.03,270.35 L 187.90,266.79 L 187.82,265.13 L 187.67,261.88 L 187.59,260.41 L 187.42,257.57 L 187.33,256.33 L 187.15,253.97 L 187.06,253.00 L 185.97,241.43 L 185.29,233.91 L 184.97,230.27 L 184.36,223.07 L 184.08,219.62 L 183.53,212.82 L 183.28,209.59 L 182.81,203.27 L 182.61,200.31 L 182.21,194.53 L 182.05,191.87 L 181.75,186.72 L 181.63,184.40 L 181.42,179.94 L 181.35,178.00 L 180.73,160.50 L 213.80,132.92 L 213.30,128.71 L 212.60,124.17 L 211.96,120.99 L 211.58,119.39 L 210.79,116.19 L 210.35,114.64 L 209.45,111.60 L 208.98,110.20 L 208.04,107.49 L 207.57,106.32 L 206.64,104.12 L 206.20,103.28 L 205.35,101.77 L 204.98,101.34 L 204.26,100.71 M 489.36,280.22 L 490.44,280.71 L 492.26,281.64 L 493.11,282.09 L 494.49,282.98 L 495.12,283.42 L 496.09,284.29 L 496.52,284.73 L 497.11,285.62 L 497.35,286.07 L 497.59,287.01 L 497.66,287.49 L 497.57,288.51 L 497.57,288.51 L 497.66,287.50 L 497.58,287.02 L 497.34,286.08 L 497.08,285.63 L 496.48,284.73 L 496.03,284.29 L 495.04,283.40 L 494.38,282.95 L 492.95,282.04 L 492.07,281.57 L 490.18,280.60 L 489.08,280.10 M 50.61,240.65 L 31.22,260.50 L 34.36,262.18 L 37.50,263.85 L 52.00,249.62 L 58.04,243.76 L 61.99,240.00 L 63.77,238.32 L 65.52,236.69 L 66.32,235.95 L 67.87,234.53 L 68.55,233.91 L 69.84,232.75 L 70.37,232.28 L 71.36,231.43 L 71.71,231.13 L 76.93,226.87 L 73.47,223.84 L 70.01,220.80 Z" fill="rgba(55,95,159,1)"/>
<path d="M 301.33,347.25 L 296.21,347.93 L 293.50,348.36 L 285.95,349.57 L 281.32,350.31 L 279.19,350.65 L 275.07,351.31 L 273.18,351.62 L 269.53,352.21 L 267.88,352.48 L 264.69,353.01 L 263.25,353.24 L 260.49,353.70 L 259.26,353.91 L 256.90,354.32 L 255.86,354.50 L 253.87,354.85 L 253.01,355.00 L 251.38,355.30 L 250.68,355.43 L 249.38,355.69 L 248.84,355.80 L 247.83,356.02 L 247.43,356.11 L 246.69,356.29 L 246.42,356.37 L 245.57,356.66 L 245.46,356.77 L 245.43,356.96 L 245.65,357.04 L 246.43,357.13 L 247.33,357.14 L 247.94,357.12 L 249.29,357.07 L 250.11,357.02 L 251.84,356.91 L 252.83,356.84 L 254.89,356.68 L 256.02,356.58 L 258.35,356.38 L 259.59,356.26 L 264.75,355.74 L 267.50,355.42 L 277.42,354.34 L 283.57,353.74 L 286.42,353.49 L 291.96,353.02 L 293.60,352.91 L 292.29,353.00 L 286.67,353.48 L 283.76,353.74 L 277.40,354.37 L 266.97,355.50 L 265.40,355.68 L 262.54,356.00 L 261.16,356.16 L 258.67,356.44 L 257.47,356.58 L 255.32,356.81 L 254.28,356.93 L 252.44,357.13 L 251.56,357.22 L 250.02,357.38 L 249.28,357.46 L 248.00,357.58 L 246.78,357.70 L 245.04,357.82 L 244.27,357.87 L 243.26,357.87 L 242.83,357.85 L 242.36,357.73 L 242.17,357.66 L 242.04,357.44 L 242.00,357.00 L 242.00,356.72 L 242.66,356.29 L 244.25,356.00 L 244.40,356.00 L 245.27,355.90 L 245.79,355.84 L 247.33,355.63 L 248.18,355.51 L 250.30,355.19 L 251.43,355.02 L 254.06,354.61 L 255.43,354.40 L 258.49,353.91 L 260.06,353.66 L 263.45,353.11 L 274.50,351.28 L 276.06,351.02 L 278.94,350.53 L 280.34,350.30 L 282.95,349.87 L 285.49,349.45 L 289.86,348.77 L 291.94,348.45 L 295.57,347.94 L 297.31,347.70 L 300.42,347.34 L 301.91,347.18 M 329.84,346.68 L 330.71,346.74 L 332.18,346.89 L 333.57,347.07 L 335.80,347.73 L 339.50,349.30 L 340.32,349.69 L 342.26,350.73 L 343.26,351.29 L 345.35,352.55 L 346.40,353.20 L 348.39,354.52 L 351.00,356.42 L 348.39,354.53 L 346.40,353.21 L 345.35,352.56 L 343.26,351.31 L 342.26,350.76 L 340.32,349.73 L 339.50,349.35 L 335.85,347.99 L 333.11,347.26 L 331.59,346.98 L 329.63,346.67 M 325.58,353.87 L 326.85,354.28 L 325.58,353.87 M 321.54,352.92 L 324.78,353.68 L 321.52,352.92 M 341.61,361.02 L 343.00,361.75 L 341.61,361.02 Z" fill="rgba(170,187,215,1)"/>
<path d="M 35.21,265.06 L 36.07,265.32 L 36.56,265.49 L 37.88,266.02 L 38.57,266.32 L 40.17,267.05 L 42.69,268.30 L 48.88,271.50 L 38.44,282.75 L 37.00,284.29 L 34.39,287.15 L 33.14,288.52 L 31.07,290.84 L 30.59,291.37 L 29.79,292.28 L 29.41,292.72 L 28.82,293.41 L 28.56,293.72 L 28.21,294.16 L 28.00,294.48 L 28.00,294.55 L 28.36,294.79 L 28.59,294.93 L 29.38,295.32 L 29.83,295.53 L 31.01,296.05 L 31.64,296.32 L 33.16,296.95 L 33.95,297.27 L 35.76,297.99 L 36.70,298.36 L 38.76,299.16 L 40.87,299.97 L 45.62,301.74 L 50.50,303.55 L 60.90,307.22 L 63.43,308.09 L 68.19,309.68 L 74.49,311.69 L 77.17,312.51 L 82.91,314.29 L 85.82,315.20 L 91.80,317.09 L 94.79,318.04 L 100.73,319.96 L 103.67,320.91 L 109.29,322.75 L 112.04,323.66 L 117.07,325.34 L 119.49,326.15 L 123.64,327.58 L 124.62,327.91 L 126.35,328.52 L 127.18,328.81 L 128.59,329.33 L 129.26,329.57 L 130.33,329.98 L 131.50,330.46 L 133.14,331.18 L 135.84,332.93 L 137.11,333.89 L 139.28,336.34 L 139.81,337.02 L 140.79,338.56 L 141.28,339.36 L 142.23,341.18 L 142.69,342.14 L 143.62,344.29 L 145.04,347.94 L 145.86,350.20 L 147.72,354.84 L 148.16,355.92 L 148.97,357.80 L 149.96,359.91 L 150.48,360.94 L 151.85,362.92 L 152.58,363.89 L 154.31,365.73 L 155.21,366.63 L 157.24,368.29 L 158.29,369.09 L 160.56,370.53 L 161.72,371.22 L 164.16,372.41 L 165.40,372.97 L 167.95,373.86 L 169.23,374.27 L 171.83,374.84 L 175.72,375.27 L 176.99,375.32 L 179.03,375.27 L 179.99,375.21 L 181.75,374.85 L 182.63,374.62 L 184.54,373.84 L 188.08,372.07 L 189.25,371.45 L 191.36,370.32 L 192.38,369.78 L 194.22,368.80 L 196.00,367.85 L 198.88,366.37 L 200.22,365.68 L 202.41,364.66 L 203.44,364.19 L 205.20,363.55 L 206.05,363.26 L 207.63,362.90 L 208.42,362.75 L 210.07,362.61 L 210.92,362.55 L 212.89,362.53 L 216.47,362.54 L 218.22,362.54 L 221.30,362.66 L 222.78,362.74 L 225.42,363.00 L 226.68,363.15 L 228.94,363.58 L 232.00,364.40 L 238.41,366.54 L 250.53,370.60 L 256.47,372.60 L 267.64,376.39 L 273.11,378.25 L 283.31,381.76 L 288.29,383.48 L 297.50,386.70 L 301.99,388.27 L 310.20,391.19 L 312.18,391.91 L 315.97,393.27 L 317.83,393.95 L 321.36,395.24 L 323.09,395.88 L 326.36,397.09 L 327.96,397.69 L 330.97,398.83 L 332.44,399.39 L 335.19,400.45 L 339.00,401.95 L 341.05,402.77 L 344.89,404.27 L 346.76,405.00 L 350.24,406.32 L 351.92,406.96 L 354.99,408.08 L 356.47,408.61 L 359.09,409.53 L 360.35,409.95 L 362.49,410.64 L 363.50,410.96 L 365.12,411.41 L 365.86,411.61 L 366.93,411.82 L 367.86,411.83 L 367.92,411.81 L 368.42,411.31 L 368.73,410.98 L 369.68,409.93 L 370.21,409.34 L 371.57,407.79 L 372.29,406.96 L 374.00,404.99 L 374.89,403.95 L 376.89,401.61 L 377.92,400.40 L 380.16,397.76 L 381.31,396.41 L 383.74,393.53 L 387.54,389.00 L 388.83,387.45 L 391.76,383.97 L 393.27,382.17 L 396.55,378.29 L 398.22,376.31 L 401.74,372.16 L 403.52,370.06 L 407.18,365.77 L 410.84,361.46 L 418.09,352.98 L 419.86,350.92 L 423.24,346.98 L 427.96,341.50 L 429.91,339.24 L 433.65,334.91 L 435.49,332.78 L 438.99,328.71 L 440.72,326.70 L 443.99,322.88 L 445.60,321.01 L 448.64,317.45 L 450.14,315.71 L 452.94,312.42 L 454.32,310.80 L 456.89,307.78 L 458.14,306.30 L 460.47,303.54 L 461.61,302.19 L 463.69,299.71 L 464.71,298.50 L 466.55,296.29 L 467.44,295.21 L 469.04,293.28 L 469.80,292.35 L 471.15,290.69 L 471.79,289.90 L 472.89,288.53 L 473.40,287.88 L 474.24,286.79 L 474.63,286.28 L 475.22,285.48 L 475.48,285.12 L 475.80,284.61 L 476.00,284.18 L 476.00,284.04 L 475.75,283.71 L 475.59,283.54 L 475.08,283.16 L 472.87,282.11 L 472.18,281.86 L 471.25,281.47 L 470.86,281.28 L 470.49,280.90 L 470.36,280.71 L 470.47,280.22 L 471.08,279.26 L 471.59,278.58 L 472.41,277.49 L 472.80,276.98 L 473.47,276.22 L 473.80,275.88 L 474.46,275.44 L 474.80,275.26 L 475.57,275.13 L 475.98,275.11 L 477.01,275.30 L 477.57,275.43 L 478.98,275.91 L 479.74,276.19 L 481.67,276.97 L 485.29,278.46 L 486.67,279.03 L 489.05,280.09 L 490.18,280.60 L 492.07,281.57 L 492.95,282.04 L 494.38,282.95 L 495.04,283.40 L 496.03,284.29 L 496.48,284.73 L 497.08,285.63 L 497.34,286.08 L 497.58,287.02 L 497.66,287.50 L 497.57,288.51 L 497.10,290.16 L 497.07,290.24 L 496.85,290.59 L 496.71,290.79 L 496.28,291.37 L 496.04,291.69 L 495.42,292.50 L 495.08,292.93 L 494.28,293.95 L 493.42,295.02 L 491.22,297.72 L 490.04,299.16 L 487.25,302.54 L 485.79,304.30 L 482.49,308.24 L 480.79,310.26 L 477.09,314.65 L 475.19,316.90 L 471.16,321.63 L 464.84,329.02 L 462.69,331.53 L 457.99,337.01 L 455.59,339.81 L 450.52,345.72 L 445.39,351.71 L 434.69,364.20 L 432.04,367.31 L 426.82,373.41 L 424.24,376.43 L 419.29,382.22 L 416.86,385.06 L 412.34,390.35 L 406.22,397.52 L 404.31,399.76 L 400.60,404.08 L 398.76,406.20 L 395.26,410.22 L 393.54,412.18 L 390.33,415.81 L 388.77,417.57 L 385.92,420.74 L 384.54,422.26 L 382.14,424.87 L 380.99,426.11 L 379.10,428.09 L 378.23,428.99 L 376.93,430.25 L 376.64,430.52 L 376.20,430.91 L 375.72,431.25 L 374.60,431.86 L 372.58,432.54 L 372.05,432.66 L 370.90,432.75 L 370.30,432.76 L 368.91,432.62 L 368.17,432.53 L 366.40,432.15 L 365.46,431.93 L 363.21,431.30 L 362.01,430.95 L 359.14,430.04 L 357.61,429.56 L 354.00,428.36 L 347.97,426.36 L 336.19,422.39 L 330.34,420.40 L 318.87,416.43 L 307.48,412.46 L 285.47,404.48 L 274.55,400.47 L 253.23,392.31 L 221.61,379.73 L 210.72,375.28 L 202.61,379.41 L 201.37,380.04 L 199.05,381.15 L 197.91,381.67 L 195.73,382.57 L 193.57,383.43 L 189.43,384.60 L 187.34,385.11 L 182.95,385.68 L 181.81,385.79 L 179.40,385.92 L 175.53,386.00 L 172.83,386.00 L 167.81,385.49 L 165.36,385.15 L 160.77,383.96 L 158.53,383.27 L 154.31,381.36 L 148.35,377.67 L 147.19,376.82 L 145.01,374.96 L 143.95,374.01 L 141.97,371.99 L 141.01,370.96 L 139.26,368.79 L 138.41,367.70 L 136.89,365.41 L 136.17,364.25 L 134.90,361.88 L 134.30,360.68 L 133.30,358.23 L 132.83,357.00 L 132.12,354.52 L 131.38,350.77 L 131.21,349.47 L 130.60,347.16 L 130.44,346.65 L 130.11,345.86 L 129.62,345.13 L 129.36,344.92 L 128.16,344.29 L 127.46,343.95 L 125.47,343.07 L 124.37,342.61 L 121.66,341.52 L 120.22,340.96 L 116.88,339.69 L 115.14,339.03 L 111.25,337.61 L 109.25,336.88 L 104.91,335.33 L 102.69,334.55 L 97.98,332.91 L 95.59,332.08 L 90.60,330.37 L 85.56,328.65 L 75.01,325.15 L 69.72,323.41 L 59.18,320.04 L 56.58,319.21 L 51.50,317.63 L 48.99,316.85 L 44.16,315.38 L 41.78,314.66 L 37.28,313.34 L 31.00,311.54 L 28.18,310.76 L 22.72,309.23 L 20.07,308.49 L 15.35,307.16 L 14.24,306.85 L 12.25,306.29 L 11.29,306.03 L 9.67,305.57 L 8.91,305.35 L 7.72,305.01 L 6.50,304.66 L 5.60,304.40 L 4.22,303.84 L 3.59,303.55 L 2.80,302.82 L 2.49,302.42 L 2.36,301.40 L 2.38,300.84 L 2.97,299.39 L 3.37,298.60 L 4.75,296.60 L 5.15,296.05 L 6.10,294.85 L 6.61,294.22 L 7.78,292.83 L 8.40,292.11 L 9.80,290.52 L 10.53,289.69 L 12.17,287.89 L 13.02,286.96 L 14.90,284.92 L 18.00,281.59 L 20.13,279.31 L 24.14,275.15 L 25.10,274.16 L 26.91,272.34 L 27.79,271.46 L 29.39,269.89 L 30.16,269.14 L 31.51,267.87 L 32.14,267.28 L 33.19,266.34 L 33.68,265.93 L 34.38,265.38 L 35.00,265.05 Z" fill="rgba(238,125,106,1)"/>
<path d="M 353.00,405.36 L 350.35,404.26 L 344.87,402.06 L 342.10,400.96 L 336.30,398.70 L 333.35,397.57 L 327.12,395.22 L 323.94,394.03 L 317.18,391.56 L 313.72,390.30 L 306.31,387.65 L 302.51,386.30 L 294.35,383.45 L 290.16,381.99 L 281.13,378.88 L 266.50,373.90 L 263.89,373.02 L 258.91,371.32 L 256.47,370.48 L 251.91,368.91 L 249.69,368.14 L 245.65,366.72 L 243.71,366.03 L 240.28,364.81 L 238.65,364.23 L 235.94,363.23 L 234.68,362.77 L 232.78,362.04 L 231.94,361.71 L 230.96,361.29 L 230.77,361.20 L 230.58,361.09 L 230.60,361.02 L 230.75,361.02 L 231.63,360.95 L 232.17,360.91 L 233.78,360.77 L 234.66,360.69 L 236.90,360.48 L 238.09,360.36 L 240.87,360.09 L 242.32,359.95 L 245.56,359.63 L 247.22,359.47 L 250.83,359.10 L 262.60,357.90 L 267.07,357.43 L 275.26,356.65 L 279.23,356.29 L 286.45,355.71 L 289.94,355.45 L 296.24,355.07 L 299.27,354.90 L 304.68,354.72 L 307.27,354.65 L 311.83,354.66 L 314.01,354.70 L 317.76,354.90 L 319.54,355.03 L 322.52,355.44 L 326.18,356.26 L 326.57,356.38 L 327.58,356.75 L 328.12,356.96 L 329.40,357.49 L 330.73,358.05 L 333.96,359.53 L 335.64,360.32 L 339.26,362.11 L 344.68,364.93 L 348.00,366.72 L 354.37,369.76 L 357.52,371.19 L 363.60,373.52 L 366.61,374.60 L 372.45,376.24 L 381.00,377.96 L 387.50,378.90 L 395.32,370.70 L 396.96,368.99 L 400.49,365.17 L 402.30,363.20 L 406.16,358.89 L 408.13,356.68 L 412.28,351.91 L 414.39,349.47 L 418.82,344.29 L 421.06,341.64 L 425.73,336.06 L 428.09,333.22 L 432.97,327.28 L 435.44,324.26 L 440.51,317.99 L 448.30,308.25 L 449.68,306.51 L 452.35,303.18 L 453.67,301.54 L 456.17,298.45 L 457.40,296.94 L 459.68,294.16 L 460.78,292.82 L 462.78,290.42 L 463.74,289.28 L 465.39,287.33 L 466.17,286.43 L 467.43,285.00 L 468.00,284.36 L 468.80,283.53 L 469.43,283.02 L 469.72,283.02 L 470.61,283.30 L 471.96,283.95 L 472.28,284.16 L 472.67,284.50 L 472.83,284.67 L 472.90,285.03 L 472.90,285.22 L 472.64,285.71 L 471.89,286.69 L 471.78,286.81 L 471.42,287.25 L 471.21,287.49 L 470.67,288.14 L 470.08,288.84 L 468.48,290.76 L 467.62,291.78 L 465.63,294.17 L 462.44,298.00 L 462.17,298.33 L 461.48,299.14 L 461.12,299.58 L 460.25,300.60 L 459.35,301.67 L 457.07,304.37 L 455.86,305.80 L 453.04,309.13 L 451.58,310.86 L 448.32,314.70 L 446.64,316.67 L 443.05,320.90 L 441.22,323.05 L 437.38,327.55 L 425.49,341.50 L 421.50,346.18 L 413.16,355.96 L 411.08,358.40 L 406.99,363.22 L 404.96,365.60 L 401.05,370.21 L 399.13,372.48 L 395.51,376.74 L 393.76,378.82 L 390.55,382.60 L 389.02,384.42 L 386.35,387.59 L 385.72,388.34 L 384.58,389.69 L 383.06,391.50 L 381.22,393.70 L 377.74,397.85 L 376.90,398.85 L 375.32,400.72 L 374.55,401.64 L 373.14,403.30 L 372.46,404.10 L 371.27,405.51 L 370.70,406.18 L 369.76,407.28 L 369.32,407.79 L 368.68,408.54 L 368.09,409.21 L 367.71,409.61 L 366.88,410.02 L 366.63,410.08 L 366.00,410.07 L 365.65,410.04 L 364.73,409.84 L 364.23,409.71 L 362.94,409.29 L 362.24,409.05 L 360.49,408.38 L 359.54,408.02 L 357.22,407.08 L 355.98,406.58 M 378.58,371.98 L 376.67,371.00 L 373.31,369.14 L 372.46,368.65 L 370.72,367.60 L 369.83,367.05 L 367.91,365.81 L 366.92,365.16 L 364.69,363.65 L 363.53,362.85 L 360.87,360.99 L 359.47,360.01 L 356.25,357.70 L 350.64,353.67 L 348.53,352.14 L 344.49,349.65 L 342.47,348.50 L 338.28,346.73 L 336.12,345.93 L 331.35,344.87 L 330.10,344.65 L 327.42,344.34 L 326.04,344.20 L 323.06,344.06 L 321.53,344.01 L 318.21,344.04 L 316.50,344.08 L 312.78,344.28 L 310.86,344.40 L 306.69,344.77 L 304.54,344.98 L 299.85,345.51 L 297.44,345.80 L 292.20,346.49 L 289.50,346.86 L 283.64,347.72 L 280.63,348.17 L 274.10,349.20 L 263.50,350.91 L 260.96,351.32 L 256.02,352.14 L 253.59,352.54 L 248.96,353.30 L 246.69,353.68 L 242.46,354.38 L 240.41,354.73 L 236.71,355.35 L 234.93,355.65 L 231.85,356.17 L 230.39,356.42 L 228.04,356.82 L 226.97,357.01 L 225.46,357.27 L 224.25,357.51 L 223.63,357.65 L 222.66,357.60 L 222.00,357.09 L 222.00,356.91 L 222.63,356.39 L 223.06,356.10 L 224.65,355.32 L 225.11,355.10 L 226.24,354.61 L 226.84,354.36 L 228.25,353.79 L 229.00,353.50 L 230.71,352.84 L 231.61,352.50 L 233.64,351.75 L 234.70,351.36 L 237.07,350.51 L 238.30,350.08 L 241.02,349.12 L 242.42,348.63 L 245.51,347.56 L 247.10,347.01 L 250.57,345.82 L 252.35,345.21 L 256.22,343.90 L 258.21,343.23 L 262.50,341.79 L 264.69,341.05 L 269.41,339.47 L 277.00,336.95 L 280.17,335.90 L 286.00,333.97 L 288.84,333.03 L 294.06,331.32 L 296.60,330.49 L 301.27,328.99 L 303.54,328.27 L 307.70,326.96 L 309.73,326.34 L 313.45,325.21 L 315.26,324.67 L 318.61,323.72 L 320.23,323.26 L 323.25,322.46 L 324.72,322.08 L 327.47,321.43 L 330.17,320.80 L 335.00,319.92 L 337.37,319.53 L 341.89,319.04 L 344.15,318.83 L 348.82,318.63 L 356.50,318.52 L 358.58,318.52 L 362.04,318.52 L 363.67,318.53 L 366.35,318.57 L 367.62,318.59 L 369.73,318.69 L 370.73,318.75 L 372.46,318.93 L 374.12,319.14 L 377.11,319.90 L 377.89,320.13 L 379.61,320.70 L 382.62,321.75 L 383.87,322.20 L 386.30,323.01 L 387.49,323.40 L 389.59,324.05 L 390.59,324.34 L 392.13,324.74 L 393.56,325.00 L 393.63,325.00 L 393.93,324.83 L 394.11,324.71 L 394.62,324.32 L 394.91,324.10 L 395.63,323.50 L 396.02,323.17 L 396.94,322.36 L 397.91,321.50 L 400.40,319.22 L 401.73,317.99 L 404.89,315.00 L 406.55,313.43 L 410.31,309.82 L 412.25,307.94 L 416.53,303.77 L 418.73,301.62 L 423.45,296.97 L 430.96,289.51 L 466.54,254.02 L 475.02,256.37 L 476.18,256.70 L 478.29,257.37 L 479.30,257.70 L 480.94,258.35 L 481.69,258.65 L 482.69,259.19 L 483.27,259.79 L 483.26,259.85 L 483.09,260.14 L 482.98,260.32 L 482.63,260.84 L 482.43,261.13 L 481.91,261.86 L 481.62,262.26 L 480.93,263.19 L 480.21,264.18 L 478.31,266.69 L 477.29,268.03 L 474.88,271.17 L 473.62,272.81 L 470.78,276.48 L 469.31,278.36 L 466.12,282.45 L 464.49,284.53 L 461.04,288.92 L 459.29,291.14 L 455.67,295.74 L 452.01,300.36 L 444.53,309.76 L 442.68,312.09 L 439.02,316.66 L 437.22,318.91 L 433.72,323.25 L 432.00,325.39 L 428.76,329.40 L 427.17,331.35 L 424.25,334.93 L 422.84,336.65 L 420.33,339.68 L 417.12,343.50 L 415.79,345.06 L 412.82,348.48 L 411.30,350.23 L 408.08,353.85 L 406.46,355.66 L 403.20,359.27 L 401.58,361.05 L 398.47,364.43 L 396.96,366.07 L 394.21,369.01 L 392.89,370.40 L 390.69,372.68 L 390.19,373.20 L 389.31,374.07 L 388.90,374.48 L 388.23,375.12 L 387.93,375.40 L 387.49,375.77 L 387.12,376.00 L 387.03,376.00 L 386.24,375.68 L 385.76,375.48 L 384.33,374.82 L 383.56,374.45 L 381.69,373.54 L 380.71,373.06 M 365.50,372.14 L 364.95,371.95 L 363.60,371.43 L 362.88,371.15 L 361.25,370.47 L 359.56,369.75 L 355.59,367.95 L 353.55,367.01 L 349.26,364.93 L 343.00,361.75 L 341.61,361.02 L 339.10,359.73 L 337.89,359.11 L 335.70,358.03 L 334.65,357.52 L 332.73,356.63 L 331.80,356.21 L 330.10,355.49 L 328.45,354.81 L 325.58,353.87 L 321.54,352.92 L 320.47,352.74 L 317.88,352.47 L 316.52,352.36 L 313.36,352.24 L 311.71,352.20 L 307.96,352.23 L 306.01,352.26 L 301.68,352.43 L 299.43,352.53 L 294.50,352.85 L 291.96,353.02 L 286.42,353.49 L 283.57,353.74 L 277.42,354.34 L 267.50,355.42 L 264.75,355.74 L 259.59,356.26 L 258.35,356.38 L 256.02,356.58 L 254.89,356.68 L 252.83,356.84 L 251.84,356.91 L 250.11,357.02 L 249.29,357.07 L 247.94,357.12 L 247.33,357.14 L 246.43,357.13 L 245.65,357.04 L 245.43,356.96 L 245.46,356.77 L 245.57,356.66 L 246.42,356.37 L 246.69,356.29 L 247.43,356.11 L 247.83,356.02 L 248.84,355.80 L 249.38,355.69 L 250.68,355.43 L 251.38,355.30 L 253.01,355.00 L 253.87,354.85 L 255.86,354.50 L 256.90,354.32 L 259.26,353.91 L 260.49,353.70 L 263.25,353.24 L 264.69,353.01 L 267.88,352.48 L 269.53,352.21 L 273.18,351.62 L 275.07,351.31 L 279.19,350.65 L 281.32,350.31 L 285.95,349.57 L 293.50,348.36 L 296.21,347.93 L 301.33,347.25 L 303.84,346.94 L 308.57,346.49 L 310.88,346.29 L 315.21,346.08 L 317.33,346.00 L 321.27,346.03 L 323.19,346.07 L 326.73,346.33 L 328.45,346.49 L 331.59,346.98 L 333.11,347.26 L 335.85,347.99 L 339.50,349.35 L 340.32,349.73 L 342.26,350.76 L 343.26,351.31 L 345.35,352.56 L 346.40,353.21 L 348.39,354.53 L 351.00,356.42 L 351.56,356.86 L 352.96,357.90 L 353.69,358.44 L 355.39,359.66 L 356.28,360.28 L 358.25,361.65 L 359.26,362.35 L 361.46,363.84 L 363.71,365.36 L 368.70,368.63 L 376.61,373.69 L 377.06,373.97 L 377.51,374.39 L 377.67,374.58 L 377.59,374.82 L 377.49,374.91 L 376.93,374.97 L 376.59,374.98 L 375.61,374.87 L 375.07,374.80 L 373.72,374.53 L 373.01,374.37 L 371.35,373.95 L 370.49,373.72 L 368.58,373.15 L 367.60,372.85 M 171.44,373.11 L 170.22,372.80 L 167.83,371.93 L 166.65,371.45 L 164.37,370.28 L 163.24,369.66 L 161.09,368.21 L 160.04,367.45 L 158.06,365.76 L 157.09,364.89 L 155.32,362.99 L 154.46,362.02 L 152.93,359.94 L 152.20,358.88 L 150.94,356.65 L 149.41,353.18 L 149.17,352.54 L 148.56,350.89 L 148.24,350.03 L 147.53,348.13 L 145.39,342.55 L 145.07,341.73 L 144.51,340.22 L 144.25,339.49 L 143.83,338.26 L 143.65,337.70 L 143.43,336.89 L 143.35,336.31 L 143.47,336.20 L 144.37,336.25 L 144.92,336.32 L 146.62,336.71 L 147.55,336.94 L 149.91,337.61 L 151.17,337.98 L 154.08,338.89 L 155.60,339.38 L 158.95,340.49 L 160.67,341.07 L 164.33,342.34 L 168.05,343.64 L 175.91,346.52 L 179.83,347.97 L 187.40,350.89 L 189.22,351.61 L 192.66,352.99 L 194.33,353.66 L 197.35,354.93 L 198.81,355.55 L 201.31,356.66 L 202.49,357.19 L 204.35,358.10 L 205.19,358.53 L 206.29,359.20 L 206.94,359.88 L 206.94,359.96 L 206.64,360.24 L 206.44,360.40 L 205.80,360.81 L 205.45,361.04 L 204.52,361.58 L 204.02,361.86 L 202.85,362.49 L 201.62,363.14 L 198.62,364.65 L 197.07,365.42 L 193.69,367.03 L 191.99,367.83 L 188.61,369.36 L 186.95,370.10 L 183.93,371.39 L 182.50,371.99 L 180.21,372.86 L 179.70,373.04 L 178.88,373.30 L 178.00,373.50 L 177.04,373.60 L 174.63,373.54 L 173.44,373.47 M 178.00,369.00 L 178.00,368.72 L 177.34,368.29 L 175.75,367.99 L 174.68,367.99 L 172.52,367.66 L 171.44,367.44 L 169.29,366.69 L 168.21,366.27 L 166.10,365.13 L 165.05,364.52 L 163.00,363.02 L 161.99,362.22 L 160.05,360.39 L 159.09,359.43 L 157.28,357.29 L 156.40,356.18 L 154.77,353.75 L 152.54,349.81 L 152.05,348.84 L 151.17,346.91 L 150.74,345.97 L 150.04,344.26 L 149.72,343.45 L 149.28,342.15 L 149.00,340.87 L 149.00,340.35 L 148.71,339.55 L 148.00,339.00 L 147.78,339.00 L 147.45,339.18 L 147.31,339.29 L 147.13,339.68 L 146.99,340.12 L 147.11,341.53 L 147.23,342.31 L 147.81,344.27 L 148.15,345.30 L 149.11,347.61 L 149.63,348.80 L 150.88,351.28 L 151.54,352.52 L 153.00,354.98 L 153.75,356.19 L 155.35,358.44 L 157.80,361.37 L 158.31,361.90 L 159.63,363.06 L 160.33,363.64 L 161.88,364.80 L 162.67,365.36 L 164.27,366.38 L 166.50,367.61 L 167.78,368.21 L 170.45,369.10 L 171.77,369.49 L 174.16,369.89 L 174.72,369.96 L 175.71,369.99 L 176.17,369.99 L 176.92,369.88 L 177.26,369.81 L 177.72,369.56 L 177.90,369.41 M 209.07,358.07 L 208.79,357.89 L 208.71,357.23 L 208.73,357.03 L 208.92,356.51 L 209.04,356.24 L 209.44,355.55 L 209.66,355.18 L 210.28,354.29 L 210.61,353.82 L 211.47,352.70 L 211.93,352.11 L 213.04,350.73 L 215.01,348.33 L 215.70,347.51 L 217.30,345.67 L 218.13,344.72 L 219.99,342.65 L 220.95,341.59 L 223.04,339.33 L 224.11,338.18 L 226.40,335.77 L 228.73,333.32 L 233.81,328.11 L 236.40,325.48 L 241.79,320.10 L 244.50,317.42 L 249.92,312.17 L 252.61,309.58 L 257.77,304.73 L 260.29,302.38 L 264.91,298.21 L 266.01,297.22 L 268.08,295.43 L 270.91,293.03 L 271.99,292.14 L 274.77,289.91 L 276.26,288.73 L 279.75,285.98 L 281.58,284.56 L 285.68,281.39 L 287.79,279.76 L 292.36,276.26 L 294.70,274.48 L 299.63,270.74 L 302.12,268.84 L 307.29,264.94 L 312.50,261.02 L 323.12,253.09 L 325.75,251.12 L 330.92,247.29 L 333.48,245.40 L 338.41,241.76 L 340.83,239.98 L 345.40,236.63 L 347.63,235.00 L 351.72,232.04 L 353.70,230.61 L 357.19,228.11 L 358.86,226.92 L 361.64,224.98 L 362.28,224.53 L 363.41,223.76 L 363.95,223.39 L 364.87,222.78 L 365.30,222.50 L 365.97,222.08 L 366.71,221.66 L 368.98,220.51 L 374.15,218.18 L 376.82,217.02 L 382.57,214.72 L 385.49,213.58 L 391.52,211.41 L 394.55,210.35 L 400.58,208.40 L 403.56,207.45 L 409.29,205.81 L 412.09,205.03 L 417.23,203.79 L 418.46,203.51 L 420.77,203.03 L 421.89,202.81 L 423.95,202.47 L 424.95,202.32 L 426.72,202.12 L 429.02,202.00 L 429.72,202.00 L 431.42,202.13 L 432.30,202.22 L 434.29,202.51 L 436.33,202.82 L 440.78,203.80 L 442.99,204.32 L 447.09,205.54 L 448.05,205.86 L 449.74,206.49 L 451.83,207.42 L 452.13,207.58 L 452.48,207.92 L 452.58,208.11 L 452.32,208.63 L 452.20,208.78 L 451.81,209.14 L 451.58,209.33 L 450.95,209.79 L 450.59,210.03 L 449.68,210.60 L 449.18,210.90 L 447.95,211.61 L 447.29,211.99 L 445.71,212.85 L 444.87,213.31 L 442.91,214.35 L 441.87,214.89 L 439.49,216.13 L 438.25,216.77 L 435.42,218.23 L 433.94,218.98 L 430.62,220.67 L 428.90,221.54 L 425.06,223.48 L 423.08,224.48 L 418.68,226.70 L 411.44,230.34 L 408.30,231.92 L 402.38,234.91 L 399.47,236.37 L 394.00,239.14 L 391.31,240.50 L 386.25,243.08 L 383.77,244.34 L 379.09,246.74 L 376.80,247.91 L 372.47,250.14 L 370.34,251.24 L 366.33,253.33 L 364.37,254.35 L 360.64,256.31 L 358.82,257.27 L 355.35,259.12 L 351.94,260.94 L 345.75,264.31 L 342.74,265.96 L 337.17,269.11 L 321.50,278.33 L 317.27,280.90 L 308.55,286.40 L 304.17,289.20 L 295.27,295.05 L 286.36,300.97 L 268.72,313.37 L 264.38,316.47 L 255.96,322.66 L 251.81,325.75 L 243.89,331.81 L 240.01,334.82 L 232.76,340.63 L 222.82,348.93 L 221.21,350.31 L 218.26,352.84 L 216.85,354.04 L 214.48,356.04 L 213.93,356.49 L 213.00,357.27 L 212.56,357.63 L 211.87,358.20 L 211.55,358.45 L 211.12,358.78 L 210.82,358.98 L 210.73,358.98 L 210.18,358.71 L 209.86,358.54 M 197.00,352.50 L 195.97,352.03 L 194.02,351.13 L 193.08,350.70 L 191.44,349.96 L 190.68,349.62 L 189.55,349.12 L 188.61,348.72 L 188.44,348.66 L 188.27,348.41 L 188.22,348.24 L 188.35,347.65 L 188.46,347.30 L 188.99,346.21 L 189.32,345.59 L 190.35,343.83 L 190.65,343.34 L 191.35,342.21 L 191.72,341.62 L 192.58,340.27 L 193.03,339.56 L 194.06,337.97 L 194.60,337.14 L 195.82,335.27 L 196.45,334.31 L 197.87,332.16 L 198.60,331.05 L 200.23,328.60 L 201.07,327.33 L 202.91,324.56 L 205.95,320.00 L 207.99,316.94 L 211.96,311.03 L 213.93,308.11 L 217.78,302.48 L 219.69,299.70 L 223.42,294.33 L 225.28,291.67 L 228.90,286.55 L 232.50,281.48 L 239.43,272.04 L 242.85,267.43 L 249.48,258.81 L 252.77,254.59 L 259.19,246.69 L 262.38,242.81 L 268.67,235.52 L 271.81,231.94 L 278.05,225.16 L 287.45,215.44 L 290.41,212.47 L 295.89,207.19 L 298.56,204.64 L 303.55,200.14 L 305.99,197.98 L 310.58,194.19 L 312.84,192.38 L 317.15,189.22 L 319.28,187.71 L 323.41,185.12 L 325.46,183.89 L 329.52,181.78 L 331.55,180.78 L 335.64,179.09 L 341.92,176.93 L 343.64,176.41 L 346.43,175.72 L 347.82,175.43 L 350.87,175.14 L 351.70,175.09 L 353.63,175.04 L 354.66,175.03 L 357.08,175.06 L 358.36,175.08 L 361.43,175.17 L 366.92,175.36 L 372.12,175.55 L 382.28,176.12 L 384.74,176.27 L 389.38,176.60 L 391.64,176.77 L 395.77,177.12 L 397.75,177.29 L 401.17,177.64 L 402.79,177.82 L 405.35,178.17 L 405.93,178.25 L 406.90,178.42 L 407.35,178.50 L 408.05,178.65 L 408.36,178.73 L 408.76,178.88 L 409.00,179.09 L 409.00,179.16 L 408.69,179.57 L 408.49,179.82 L 407.81,180.54 L 407.43,180.94 L 406.42,181.95 L 405.88,182.49 L 404.57,183.74 L 403.89,184.40 L 402.33,185.86 L 401.53,186.62 L 399.75,188.26 L 397.93,189.94 L 393.82,193.67 L 389.61,197.48 L 380.53,205.46 L 378.32,207.39 L 374.12,210.98 L 368.50,215.68 L 367.67,216.36 L 365.68,217.96 L 364.63,218.80 L 362.26,220.67 L 361.03,221.64 L 358.37,223.72 L 357.01,224.78 L 354.14,227.00 L 351.24,229.24 L 345.21,233.85 L 336.50,240.42 L 333.86,242.39 L 328.94,246.06 L 326.54,247.85 L 322.09,251.18 L 319.92,252.80 L 315.89,255.82 L 313.92,257.29 L 310.29,260.01 L 308.52,261.34 L 305.24,263.80 L 303.64,265.01 L 300.68,267.23 L 299.25,268.32 L 296.58,270.33 L 295.28,271.32 L 292.88,273.15 L 290.53,274.93 L 286.46,278.06 L 284.51,279.57 L 281.03,282.29 L 271.50,289.89 L 270.58,290.64 L 268.51,292.39 L 267.44,293.30 L 265.11,295.35 L 263.92,296.41 L 261.37,298.72 L 260.07,299.90 L 257.35,302.42 L 254.59,304.99 L 248.75,310.56 L 245.81,313.39 L 239.87,319.22 L 236.93,322.13 L 231.26,327.86 L 228.50,330.67 L 223.47,335.94 L 222.27,337.21 L 220.04,339.60 L 218.97,340.77 L 217.03,342.92 L 216.10,343.96 L 214.49,345.83 L 212.50,348.26 L 211.67,349.31 L 210.09,351.24 L 209.32,352.16 L 207.97,353.68 L 207.33,354.38 L 206.36,355.33 L 205.50,355.95 L 205.36,355.95 L 204.52,355.68 L 204.02,355.51 L 202.59,354.94 L 201.82,354.63 L 199.99,353.84 L 199.04,353.43 M 225.50,349.40 L 226.73,348.29 L 229.51,345.89 L 230.94,344.67 L 234.10,342.06 L 235.72,340.73 L 239.21,337.93 L 241.00,336.51 L 244.79,333.56 L 248.64,330.58 L 257.06,324.29 L 261.36,321.11 L 270.41,314.59 L 274.99,311.33 L 284.34,304.83 L 289.02,301.61 L 298.33,295.37 L 302.95,292.31 L 311.89,286.57 L 314.08,285.18 L 318.34,282.53 L 324.50,278.79 L 326.15,277.80 L 329.83,275.66 L 331.72,274.57 L 335.81,272.25 L 337.91,271.07 L 342.33,268.61 L 344.58,267.37 L 349.25,264.82 L 353.97,262.26 L 363.76,257.05 L 368.65,254.46 L 378.27,249.48 L 380.64,248.26 L 385.21,245.94 L 387.46,244.79 L 391.76,242.64 L 393.86,241.60 L 397.78,239.67 L 399.68,238.75 L 403.14,237.09 L 404.81,236.30 L 407.72,234.97 L 409.10,234.34 L 411.39,233.36 L 412.44,232.92 L 414.00,232.35 L 415.43,232.00 L 415.87,232.00 L 417.19,232.11 L 417.92,232.18 L 419.76,232.41 L 420.73,232.54 L 423.00,232.89 L 424.18,233.08 L 426.80,233.52 L 429.49,233.98 L 435.60,235.12 L 438.72,235.72 L 445.19,237.02 L 448.41,237.69 L 454.62,239.03 L 456.12,239.36 L 458.97,240.01 L 460.36,240.33 L 462.91,240.94 L 464.15,241.24 L 466.34,241.79 L 467.38,242.06 L 469.13,242.55 L 469.93,242.79 L 471.15,243.19 L 472.29,243.68 L 472.32,243.70 L 472.16,243.94 L 472.05,244.09 L 471.63,244.60 L 471.39,244.88 L 470.73,245.64 L 470.36,246.04 L 469.47,247.02 L 468.99,247.53 L 467.88,248.72 L 467.30,249.34 L 466.00,250.72 L 464.64,252.15 L 461.42,255.50 L 459.74,257.25 L 455.96,261.15 L 454.01,263.16 L 449.80,267.47 L 447.66,269.66 L 443.16,274.24 L 440.89,276.54 L 436.25,281.25 L 431.59,285.96 L 422.41,295.18 L 420.17,297.42 L 415.90,301.68 L 413.81,303.76 L 409.94,307.59 L 408.06,309.44 L 404.73,312.71 L 403.14,314.26 L 400.48,316.82 L 399.86,317.41 L 398.77,318.43 L 398.26,318.92 L 397.39,319.72 L 396.98,320.09 L 396.34,320.65 L 395.67,321.20 L 392.84,323.25 L 386.17,320.70 L 384.00,319.87 L 379.69,318.50 L 377.53,317.87 L 373.17,316.90 L 370.98,316.46 L 366.49,315.88 L 364.22,315.64 L 359.52,315.45 L 357.14,315.40 L 352.16,315.60 L 349.62,315.74 L 344.28,316.33 L 341.55,316.67 L 335.77,317.64 L 326.50,319.52 L 325.84,319.67 L 323.88,320.18 L 322.80,320.48 L 320.06,321.27 L 318.61,321.69 L 315.20,322.71 L 313.43,323.25 L 309.46,324.47 L 307.42,325.10 L 302.99,326.49 L 300.73,327.20 L 295.94,328.72 L 291.09,330.26 L 280.77,333.61 L 275.58,335.30 L 265.20,338.73 L 262.64,339.58 L 257.66,341.25 L 255.19,342.07 L 250.48,343.67 L 248.17,344.45 L 243.84,345.94 L 241.73,346.67 L 237.87,348.02 L 236.02,348.68 L 232.75,349.85 L 228.63,351.38 L 227.69,351.74 L 225.91,352.39 L 225.06,352.70 L 223.59,353.22 L 222.91,353.45 L 221.92,353.77 L 221.13,353.96 L 221.04,353.95 L 221.28,353.58 L 221.46,353.35 L 222.15,352.60 L 222.55,352.19 L 223.61,351.16 L 224.17,350.62 M 179.26,343.05 L 178.94,342.64 L 177.84,341.59 L 177.21,341.03 L 175.50,339.66 L 174.56,338.94 L 172.24,337.26 L 171.01,336.38 L 168.08,334.39 L 166.55,333.35 L 163.02,331.05 L 161.19,329.86 L 157.07,327.26 L 154.93,325.92 L 150.22,323.01 L 142.50,318.31 L 136.84,314.90 L 125.59,308.38 L 119.92,305.15 L 108.16,298.71 L 105.15,297.09 L 98.93,293.81 L 95.78,292.16 L 89.21,288.77 L 85.87,287.07 L 78.85,283.54 L 67.76,278.03 L 40.02,264.40 L 54.76,249.89 L 56.61,248.06 L 59.97,244.80 L 61.59,243.23 L 64.50,240.46 L 65.90,239.14 L 68.38,236.86 L 69.56,235.78 L 71.63,233.97 L 72.61,233.12 L 74.27,231.76 L 75.06,231.13 L 76.35,230.21 L 76.95,229.80 L 77.88,229.30 L 78.89,229.00 L 79.01,229.00 L 79.51,229.26 L 79.81,229.43 L 80.65,230.01 L 81.10,230.34 L 82.24,231.21 L 82.85,231.68 L 84.25,232.81 L 84.98,233.41 L 86.61,234.77 L 87.45,235.47 L 89.28,237.03 L 91.15,238.64 L 95.34,242.31 L 97.48,244.20 L 102.00,248.27 L 104.28,250.34 L 108.86,254.56 L 111.13,256.67 L 115.49,260.82 L 121.50,266.66 L 124.61,269.76 L 130.83,276.16 L 133.92,279.38 L 139.99,285.90 L 142.99,289.16 L 148.75,295.60 L 151.58,298.80 L 156.88,304.99 L 159.45,308.04 L 164.13,313.79 L 165.25,315.19 L 167.35,317.87 L 168.38,319.19 L 170.27,321.70 L 171.19,322.94 L 172.85,325.25 L 173.65,326.38 L 175.06,328.47 L 175.74,329.48 L 176.88,331.33 L 178.27,333.80 L 178.95,335.11 L 180.08,337.47 L 180.61,338.61 L 181.43,340.57 L 181.79,341.50 L 182.29,343.01 L 182.50,343.71 L 182.68,344.74 L 182.73,345.19 L 182.58,345.68 L 182.46,345.85 L 181.98,345.75 L 181.69,345.63 L 180.87,344.90 L 180.42,344.45 M 165.50,340.38 L 164.54,340.04 L 162.19,339.26 L 160.97,338.86 L 158.35,338.03 L 157.04,337.62 L 154.46,336.85 L 151.00,335.86 L 149.97,335.58 L 147.46,334.76 L 146.15,334.32 L 143.35,333.28 L 141.95,332.75 L 139.20,331.62 L 135.50,329.97 L 134.54,329.51 L 132.60,328.64 L 131.61,328.20 L 129.35,327.28 L 128.16,326.80 L 125.29,325.74 L 124.52,325.46 L 122.82,324.86 L 121.93,324.55 L 119.97,323.87 L 118.95,323.53 L 116.69,322.77 L 115.52,322.38 L 112.93,321.52 L 111.59,321.08 L 108.63,320.11 L 107.09,319.61 L 103.72,318.52 L 101.98,317.96 L 98.17,316.74 L 96.20,316.11 L 91.90,314.73 L 89.68,314.03 L 84.86,312.49 L 77.00,309.99 L 73.90,309.01 L 67.95,307.08 L 65.03,306.12 L 59.52,304.29 L 56.83,303.39 L 51.88,301.69 L 49.48,300.86 L 45.21,299.35 L 43.17,298.62 L 39.71,297.32 L 38.09,296.71 L 35.55,295.69 L 34.98,295.45 L 34.03,295.04 L 33.59,294.84 L 32.92,294.50 L 32.62,294.35 L 32.23,294.10 L 32.00,293.84 L 32.00,293.74 L 32.21,293.34 L 32.34,293.11 L 32.79,292.48 L 33.30,291.80 L 34.90,289.91 L 35.77,288.89 L 37.90,286.54 L 39.01,285.34 L 41.39,282.82 L 42.59,281.57 L 44.95,279.17 L 46.10,278.02 L 48.17,276.04 L 48.65,275.58 L 49.52,274.79 L 49.93,274.42 L 50.63,273.84 L 50.96,273.58 L 51.45,273.23 L 51.92,273.02 L 52.36,273.02 L 53.48,273.31 L 55.00,273.98 L 55.31,274.18 L 55.52,274.70 L 55.56,274.99 L 55.14,275.86 L 54.85,276.36 L 53.68,277.78 L 53.34,278.17 L 52.50,279.10 L 50.97,280.72 L 49.93,281.81 L 48.13,283.71 L 47.28,284.62 L 45.84,286.17 L 45.16,286.91 L 44.05,288.15 L 43.54,288.73 L 42.74,289.69 L 42.37,290.14 L 41.84,290.85 L 41.61,291.19 L 41.33,291.69 L 41.27,292.60 L 41.31,292.65 L 41.56,292.55 L 41.71,292.47 L 42.17,292.15 L 42.66,291.78 L 44.15,290.46 L 44.97,289.73 L 46.94,287.81 L 50.23,284.46 L 58.57,275.71 L 83.54,288.33 L 86.97,290.06 L 94.41,293.90 L 98.16,295.84 L 105.57,299.75 L 107.38,300.71 L 110.85,302.57 L 112.55,303.48 L 115.71,305.19 L 117.24,306.02 L 119.98,307.54 L 123.50,309.52 L 125.61,310.72 L 130.35,313.49 L 132.77,314.92 L 137.91,317.99 L 143.09,321.10 L 153.43,327.46 L 155.91,329.00 L 160.51,331.89 L 162.72,333.28 L 166.55,335.75 L 167.44,336.33 L 169.04,337.38 L 169.81,337.89 L 171.11,338.77 L 171.73,339.19 L 172.71,339.89 L 173.77,340.69 L 174.37,341.19 L 175.15,341.88 L 175.47,342.18 L 175.71,342.55 L 175.76,342.70 L 175.47,342.84 L 174.50,342.89 L 174.22,342.88 L 173.17,342.68 L 172.58,342.55 L 171.03,342.14 L 169.40,341.68 M 182.79,338.32 L 182.33,337.02 L 180.86,333.99 L 180.04,332.42 L 177.90,328.87 L 176.75,327.04 L 173.97,323.03 L 172.51,320.97 L 169.17,316.55 L 167.42,314.30 L 163.55,309.52 L 161.55,307.09 L 157.20,302.01 L 154.97,299.44 L 150.19,294.11 L 147.76,291.41 L 142.61,285.89 L 139.99,283.11 L 134.52,277.44 L 131.75,274.59 L 126.01,268.84 L 120.21,263.08 L 108.01,251.51 L 101.84,245.77 L 89.22,234.56 L 70.24,218.63 L 68.56,217.27 L 65.49,214.73 L 64.03,213.50 L 61.60,211.41 L 61.04,210.92 L 60.10,210.08 L 59.66,209.68 L 58.97,209.02 L 58.66,208.72 L 58.25,208.29 L 58.00,207.92 L 58.00,207.86 L 58.35,207.37 L 58.57,207.07 L 59.34,206.12 L 59.77,205.60 L 60.92,204.26 L 61.53,203.54 L 63.00,201.86 L 63.77,200.98 L 65.52,199.00 L 66.42,197.98 L 68.40,195.76 L 75.01,188.46 L 77.35,185.90 L 81.57,181.16 L 82.57,180.02 L 84.40,177.91 L 85.29,176.89 L 86.85,175.04 L 87.60,174.15 L 88.85,172.62 L 89.43,171.90 L 90.33,170.75 L 90.73,170.22 L 91.22,169.48 L 91.45,168.92 L 91.21,168.54 L 91.14,168.14 L 91.16,167.99 L 91.56,168.03 L 91.81,168.10 L 92.63,168.54 L 93.09,168.81 L 94.28,169.60 L 94.92,170.03 L 96.42,171.13 L 97.21,171.71 L 98.97,173.08 L 99.88,173.79 L 101.85,175.36 L 102.86,176.18 L 104.98,177.93 L 107.13,179.71 L 111.65,183.61 L 113.91,185.58 L 118.33,189.58 L 120.49,191.56 L 124.38,195.31 L 125.30,196.21 L 126.97,197.91 L 129.15,200.24 L 132.27,203.73 L 138.15,210.90 L 141.04,214.52 L 146.44,221.95 L 149.08,225.70 L 153.99,233.36 L 156.38,237.21 L 160.78,245.08 L 162.92,249.04 L 166.80,257.08 L 168.67,261.13 L 172.01,269.34 L 173.62,273.46 L 176.42,281.80 L 179.99,294.44 L 180.84,297.90 L 182.25,305.03 L 182.89,308.60 L 183.85,315.68 L 184.27,319.17 L 184.74,325.80 L 184.82,327.41 L 184.89,330.49 L 184.83,334.82 L 184.50,343.13 L 182.79,338.32 M 189.77,336.75 L 189.85,336.41 L 189.98,335.08 L 190.04,334.32 L 190.15,332.20 L 190.20,331.06 L 190.28,328.27 L 190.32,326.80 L 190.38,323.45 L 190.41,321.70 L 190.44,317.88 L 190.46,315.92 L 190.47,311.74 L 190.48,307.49 L 190.44,298.36 L 190.41,293.77 L 190.29,284.58 L 190.25,282.32 L 190.17,277.94 L 190.13,275.77 L 190.03,271.66 L 189.98,269.65 L 189.86,265.93 L 189.80,264.12 L 189.67,260.88 L 189.60,259.33 L 189.45,256.69 L 189.21,253.50 L 188.82,249.41 L 188.09,241.48 L 187.73,237.56 L 187.07,230.02 L 186.74,226.30 L 186.15,219.21 L 185.86,215.73 L 185.34,209.15 L 185.09,205.92 L 184.66,199.90 L 184.45,196.97 L 184.09,191.57 L 183.92,188.95 L 183.66,184.22 L 183.36,177.96 L 182.70,161.42 L 191.10,154.46 L 196.95,149.62 L 208.68,139.81 L 211.58,137.38 L 217.28,132.59 L 220.10,130.21 L 225.57,125.58 L 228.27,123.30 L 233.41,118.92 L 235.93,116.77 L 240.66,112.72 L 242.96,110.74 L 247.16,107.11 L 252.79,102.19 L 254.90,100.35 L 258.78,97.02 L 259.70,96.23 L 261.42,94.79 L 262.26,94.09 L 263.75,92.86 L 264.47,92.28 L 265.71,91.30 L 266.29,90.84 L 267.21,90.15 L 267.63,89.84 L 268.21,89.46 L 268.63,89.30 L 268.71,89.38 L 269.00,90.13 L 269.17,90.59 L 269.61,92.05 L 269.84,92.85 L 270.42,94.94 L 270.72,96.05 L 271.40,98.68 L 271.75,100.05 L 272.53,103.16 L 272.93,104.76 L 273.78,108.25 L 274.22,110.04 L 275.13,113.85 L 275.59,115.79 L 276.54,119.83 L 277.50,123.92 L 279.46,132.49 L 280.43,136.78 L 282.31,145.27 L 283.22,149.45 L 284.87,157.26 L 285.27,159.13 L 285.98,162.65 L 286.94,167.50 L 287.36,169.70 L 288.24,174.62 L 288.67,177.12 L 289.49,182.18 L 289.89,184.67 L 290.57,189.27 L 290.73,190.37 L 291.00,192.36 L 291.33,195.00 L 292.64,206.50 L 281.97,217.59 L 278.96,220.72 L 272.64,227.68 L 269.44,231.27 L 262.79,239.08 L 259.43,243.09 L 252.52,251.65 L 249.04,256.02 L 241.96,265.23 L 238.40,269.91 L 231.21,279.68 L 227.61,284.62 L 220.39,294.84 L 216.79,300.00 L 209.62,310.57 L 199.00,326.72 L 197.83,328.54 L 195.64,331.85 L 194.59,333.43 L 192.78,336.05 L 192.37,336.65 L 191.64,337.68 L 191.29,338.15 L 190.73,338.90 L 190.47,339.24 L 190.09,339.68 L 189.77,339.96 L 189.68,339.97 L 189.55,339.72 L 189.50,339.56 L 189.48,339.03 L 189.48,338.45 M 187.10,326.13 L 187.08,325.25 L 186.92,323.02 L 186.82,321.85 L 186.52,319.14 L 186.35,317.75 L 185.93,314.70 L 185.71,313.14 L 185.19,309.88 L 184.66,306.60 L 183.40,300.00 L 183.07,298.39 L 182.41,295.34 L 181.40,291.14 L 180.68,288.34 L 179.02,282.74 L 178.15,279.94 L 176.21,274.36 L 174.21,268.77 L 169.42,257.72 L 166.90,252.23 L 161.16,241.47 L 158.19,236.14 L 151.61,225.83 L 148.22,220.74 L 140.91,211.03 L 137.16,206.26 L 129.21,197.30 L 127.18,195.12 L 123.03,190.91 L 120.94,188.84 L 116.66,184.88 L 114.51,182.93 L 110.12,179.22 L 103.43,173.98 L 102.31,173.15 L 100.30,171.66 L 99.33,170.94 L 97.60,169.66 L 96.77,169.04 L 95.31,167.96 L 94.61,167.43 L 93.39,166.52 L 92.22,165.65 L 90.56,164.35 L 89.82,163.76 L 88.90,162.93 L 88.51,162.55 L 88.18,162.04 L 88.08,161.82 L 88.19,161.49 L 89.50,160.48 L 89.72,160.30 L 90.44,159.81 L 90.84,159.55 L 91.90,158.90 L 92.47,158.56 L 93.86,157.75 L 94.59,157.33 L 96.28,156.37 L 97.17,155.88 L 99.16,154.78 L 100.19,154.22 L 102.45,152.99 L 103.62,152.36 L 106.15,151.01 L 107.45,150.32 L 110.23,148.86 L 113.06,147.36 L 119.41,144.07 L 122.68,142.38 L 129.81,138.73 L 133.46,136.87 L 141.23,132.94 L 153.50,126.80 L 158.04,124.54 L 166.96,120.05 L 169.14,118.95 L 173.32,116.83 L 175.37,115.79 L 179.20,113.83 L 181.07,112.87 L 184.45,111.13 L 186.08,110.29 L 188.89,108.82 L 190.22,108.12 L 192.35,106.98 L 194.67,105.71 L 195.79,105.07 L 197.93,103.88 L 198.96,103.31 L 200.77,102.34 L 201.61,101.89 L 202.88,101.25 L 203.97,100.78 L 204.26,100.71 L 204.98,101.34 L 205.35,101.77 L 206.20,103.28 L 206.64,104.12 L 207.57,106.32 L 208.04,107.49 L 208.98,110.20 L 209.45,111.60 L 210.35,114.64 L 210.79,116.19 L 211.58,119.39 L 211.96,120.99 L 212.60,124.17 L 213.30,128.71 L 213.80,132.92 L 197.27,146.71 L 180.73,160.50 L 181.35,178.00 L 181.42,179.94 L 181.63,184.40 L 181.75,186.72 L 182.05,191.87 L 182.21,194.53 L 182.61,200.31 L 182.81,203.27 L 183.28,209.59 L 183.53,212.82 L 184.08,219.62 L 184.36,223.07 L 184.97,230.27 L 185.29,233.91 L 185.97,241.43 L 187.06,253.00 L 187.15,253.97 L 187.33,256.33 L 187.42,257.57 L 187.59,260.41 L 187.67,261.88 L 187.82,265.13 L 187.90,266.79 L 188.03,270.35 L 188.17,273.97 L 188.39,281.80 L 188.49,285.76 L 188.63,293.77 L 188.69,297.73 L 188.75,305.23 L 188.75,307.04 L 188.75,310.46 L 188.75,312.12 L 188.72,315.18 L 188.70,316.65 L 188.65,319.27 L 188.62,320.51 L 188.54,322.60 L 188.50,323.58 L 188.39,325.06 L 188.19,326.50 L 187.20,330.50 L 187.10,326.13 M 34.36,262.18 L 31.22,260.50 L 50.61,240.65 L 70.01,220.80 L 73.47,223.84 L 76.93,226.87 L 71.71,231.13 L 71.36,231.43 L 70.37,232.28 L 69.84,232.75 L 68.55,233.91 L 67.87,234.53 L 66.32,235.95 L 65.52,236.69 L 63.77,238.32 L 61.99,240.00 L 58.04,243.76 L 52.00,249.62 L 37.50,263.85 L 34.36,262.18 Z" fill="rgba(254,254,254,1)"/>
</g>
</svg>